<svg width="26" height="26" viewBox="0 0 26 26" fill="none" xmlns="http://www.w3.org/2000/svg">
<path d="M13 0.900391C19.6152 0.900543 25.0996 6.38472 25.0996 13C25.0995 19.6156 19.6152 25.0995 13 25.0996C6.38509 25.0996 0.900467 19.6157 0.900391 13C0.900391 6.38463 6.38505 0.900391 13 0.900391ZM13 2.70117C7.29606 2.70117 2.70117 7.29564 2.70117 13C2.70125 18.7047 7.2961 23.2988 13 23.2988C18.7043 23.2987 23.2988 18.7046 23.2988 13C23.2988 7.29574 18.7044 2.70132 13 2.70117ZM6.95898 13.9561C7.21373 13.872 7.43278 13.9133 7.60742 14.0225C7.73537 14.1025 7.83644 14.2168 7.91309 14.3369L7.98145 14.458L7.98633 14.4678L7.98926 14.4785C8.13281 15.0571 8.42323 15.4939 8.7207 15.9424L8.94629 16.2119C10.0909 17.5134 11.4816 18.1601 12.9971 18.1602C14.621 18.1602 16.2413 17.4222 17.1211 16.1016C17.4173 15.6558 17.7135 15.0652 17.8594 14.623V14.6221C18.0285 14.1178 18.5411 13.934 18.9004 14.1123H18.8994C19.3908 14.2819 19.5698 14.783 19.4004 15.1387C19.241 15.9072 18.7818 16.5221 18.335 17.1162L18.334 17.1152C17.2636 18.7977 15.13 19.8593 13 19.8594C10.8666 19.8594 8.73306 18.7927 7.51172 17.1152V17.1162C7.05272 16.5056 6.74625 15.7379 6.44922 15.1484L6.44629 15.1426L6.44336 15.1348C6.35916 14.8792 6.40279 14.6264 6.50586 14.4199C6.60824 14.2149 6.77351 14.0483 6.94629 13.9619L6.95215 13.958L6.95898 13.9561ZM8.49316 8.39258C9.37809 8.39269 10.0957 9.11029 10.0957 9.99512C10.0957 10.88 9.37807 11.5975 8.49316 11.5977C7.60817 11.5977 6.89067 10.8801 6.89062 9.99512C6.89062 9.11023 7.60815 8.39258 8.49316 8.39258ZM17.5068 8.39258C18.3919 8.39258 19.1094 9.11023 19.1094 9.99512C19.1093 10.8801 18.3918 11.5977 17.5068 11.5977C16.6219 11.5975 15.9043 10.88 15.9043 9.99512C15.9043 9.11029 16.6219 8.39269 17.5068 8.39258Z" fill="#333333" stroke="#303030" stroke-width="0.2"/>
</svg>
