<svg width="25" height="25" viewBox="0 0 25 25" fill="none" xmlns="http://www.w3.org/2000/svg">
<g clip-path="url(#clip0_39_1540)">
<path d="M9.53604 7.96857C10.5028 7.00177 10.5785 5.51495 9.71426 4.47247L7.0043 1.03741C6.14004 -0.105164 4.4628 -0.283387 3.32999 0.605285C3.2543 0.680969 3.15176 0.680969 3.15176 0.783508L0.776275 3.14923C-1.48691 5.41241 1.74307 11.5526 7.61709 17.4266C13.4911 23.3006 19.5312 26.4525 21.8065 24.2552L24.1723 21.8895C25.2148 20.847 25.2148 19.1819 24.1723 18.2151L23.994 18.0369L20.5712 15.3294C19.5287 14.4651 18.0419 14.5408 17.0751 15.5076L15.5883 16.9944C14.0111 16.0276 12.6 14.9852 11.3793 13.7523C10.1586 12.5193 9.11612 11.1204 8.14932 9.54327C8.12491 9.53107 9.53604 7.96857 9.53604 7.96857ZM8.30313 5.59064C8.55704 5.94708 8.55704 6.45489 8.22745 6.73566L6.29385 8.75714C6.01309 9.0379 5.94961 9.45538 6.11563 9.79962C7.1459 11.7064 8.4545 13.4349 9.96817 14.9754C11.494 16.5013 13.2348 17.7977 15.1439 18.8279C15.5004 18.994 15.9203 18.9305 16.1864 18.6497L18.1957 16.6404C18.5522 16.284 18.9843 16.284 19.3407 16.5648L22.7611 19.3748C22.7611 19.3748 22.8368 19.3748 22.8368 19.4505C23.1811 19.7679 23.1933 20.3026 22.8759 20.6468L22.8368 20.6859L20.4687 23.0467C19.3236 24.1917 13.9086 21.2913 8.73282 16.2181C3.58389 11.1082 0.776275 5.59064 1.91885 4.44562L4.37247 1.992C4.72891 1.7381 5.33926 1.7381 5.59317 2.17023L8.30313 5.59064Z" fill="#686E8B"/>
<path d="M16.8638 11.0327C16.8638 11.5674 17.2202 11.897 17.728 11.897C18.2627 11.897 18.5923 11.5405 18.5923 11.0327C18.5801 8.13477 16.2412 5.79346 13.3408 5.78125C12.8062 5.78125 12.4766 6.1377 12.4766 6.64551C12.4766 7.18018 12.833 7.50977 13.3408 7.50977C15.2866 7.52197 16.8516 9.08691 16.8638 11.0327ZM20.3599 11.0327C20.3599 11.5674 20.7163 11.897 21.2241 11.897C21.7319 11.897 22.0884 11.5405 22.0884 11.0327C22.0884 6.21338 18.1333 2.28516 13.3408 2.28516C12.8062 2.28516 12.4766 2.6416 12.4766 3.14941C12.4766 3.65723 12.833 4.01367 13.3408 4.01367C17.2056 4.01367 20.3599 7.18018 20.3599 11.0327Z" fill="#F57220"/>
</g>
<defs>
<clipPath id="clip0_39_1540">
<rect width="25" height="25" fill="white"/>
</clipPath>
</defs>
</svg>
