<svg width="28" height="28" viewBox="0 0 28 28" fill="none" xmlns="http://www.w3.org/2000/svg">
<path d="M16.9147 24.7954H6.2835C5.04756 24.7954 4.04131 23.7892 4.04131 22.5532V5.50713C4.04131 4.27119 5.04756 3.26494 6.2835 3.26494H18.2655C19.5015 3.26494 20.5077 4.27119 20.5077 5.50713V8.97432C20.5077 9.37627 20.8331 9.70166 21.2351 9.70166C21.637 9.70166 21.9624 9.37627 21.9624 8.97432V5.50713C21.9624 3.47002 20.3054 1.81299 18.2683 1.81299H6.2835C4.24639 1.81299 2.58936 3.47002 2.58936 5.50713V22.5532C2.58936 24.5903 4.24639 26.2474 6.2835 26.2474H16.9175C17.3194 26.2474 17.6448 25.922 17.6448 25.52C17.6421 25.1208 17.3167 24.7954 16.9147 24.7954Z" fill="#686E8B"/>
<path d="M15.3999 9.39785C15.3999 8.96582 15.0472 8.61035 14.6124 8.61035H7.32803C6.896 8.61035 6.54053 8.96309 6.54053 9.39785C6.54053 9.82988 6.89326 10.1854 7.32803 10.1854H14.6097C15.0444 10.1854 15.3999 9.82988 15.3999 9.39785ZM7.32803 14.9705H13.33C13.762 14.9705 14.1175 14.6178 14.1175 14.183C14.1175 13.751 13.7647 13.3955 13.33 13.3955H7.32803C6.896 13.3955 6.54053 13.7482 6.54053 14.183C6.54326 14.6178 6.896 14.9705 7.32803 14.9705ZM6.54326 18.9709C6.54326 19.4029 6.896 19.7584 7.33076 19.7584H14.1722C14.6042 19.7584 14.9597 19.4057 14.9597 18.9709C14.9569 18.5389 14.6015 18.1834 14.1694 18.1834H7.32803C6.896 18.1834 6.54326 18.5389 6.54326 18.9709ZM25.1753 15.9877L21.7464 12.5615C21.462 12.2771 21.0026 12.2771 20.7183 12.5615L17.2948 15.9877C17.0104 16.2721 17.0104 16.7314 17.2948 17.0158C17.5792 17.3002 18.0386 17.3002 18.3229 17.0158L20.5104 14.8283V23.0752C20.5104 23.4771 20.8358 23.8025 21.2378 23.8025C21.6397 23.8025 21.9651 23.4771 21.9651 23.0752V14.8256L24.1526 17.0131C24.2948 17.1553 24.4808 17.2264 24.6667 17.2264C24.8526 17.2264 25.0386 17.1553 25.1808 17.0131C25.4569 16.7314 25.4569 16.2693 25.1753 15.9877Z" fill="#16B3B2"/>
</svg>
