<svg width="24" height="24" viewBox="0 0 24 24" fill="none" xmlns="http://www.w3.org/2000/svg">
<g clip-path="url(#clip0_39_1554)">
<path d="M16.2344 7.76578C16.1547 7.68544 16.0599 7.62168 15.9554 7.57816C15.851 7.53465 15.7389 7.51224 15.6258 7.51224C15.5126 7.51224 15.4006 7.53465 15.2962 7.57816C15.1917 7.62168 15.0969 7.68544 15.0172 7.76578L12.0001 10.7829L8.96579 7.76578C8.89348 7.66659 8.8007 7.58409 8.69374 7.52385C8.58678 7.46362 8.46813 7.42707 8.34582 7.41666C8.22351 7.40625 8.10039 7.42224 7.98479 7.46354C7.8692 7.50483 7.76382 7.57048 7.67579 7.65603C7.58776 7.74158 7.51913 7.84504 7.47455 7.95941C7.42996 8.07378 7.41047 8.1964 7.41737 8.31895C7.42428 8.44151 7.45743 8.56116 7.51459 8.66979C7.57174 8.77843 7.65156 8.87352 7.74864 8.94864L10.7829 12.0001L7.76579 15.0344C7.68379 15.1113 7.61844 15.2043 7.57376 15.3074C7.52909 15.4106 7.50604 15.5219 7.50604 15.6344C7.50604 15.7468 7.52909 15.8581 7.57376 15.9613C7.61844 16.0645 7.68379 16.1574 7.76579 16.2344C7.84232 16.3167 7.93525 16.3821 8.03858 16.4264C8.14191 16.4707 8.25337 16.4929 8.36579 16.4915C8.59745 16.4909 8.81941 16.3984 8.98293 16.2344L12.0001 13.2172L15.0172 16.2344C15.0969 16.3147 15.1917 16.3785 15.2962 16.422C15.4006 16.4655 15.5126 16.4879 15.6258 16.4879C15.7389 16.4879 15.851 16.4655 15.9554 16.422C16.0599 16.3785 16.1547 16.3147 16.2344 16.2344C16.3164 16.1574 16.3817 16.0645 16.4264 15.9613C16.4711 15.8581 16.4941 15.7468 16.4941 15.6344C16.4941 15.5219 16.4711 15.4106 16.4264 15.3074C16.3817 15.2043 16.3164 15.1113 16.2344 15.0344L13.2172 12.0001L16.2344 8.98293C16.3147 8.90324 16.3785 8.80844 16.422 8.70399C16.4655 8.59954 16.4879 8.48751 16.4879 8.37435C16.4879 8.2612 16.4655 8.14917 16.422 8.04472C16.3785 7.94027 16.3147 7.84547 16.2344 7.76578Z" fill="#F84E5A"/>
<path d="M12 0C9.62663 0 7.30655 0.703788 5.33316 2.02236C3.35977 3.34094 1.8217 5.21509 0.913451 7.4078C0.00519937 9.60051 -0.232441 12.0133 0.230582 14.3411C0.693605 16.6689 1.83649 18.8071 3.51472 20.4853C5.19295 22.1635 7.33115 23.3064 9.65892 23.7694C11.9867 24.2324 14.3995 23.9948 16.5922 23.0866C18.7849 22.1783 20.6591 20.6402 21.9776 18.6668C23.2962 16.6935 24 14.3734 24 12C24 8.8174 22.7357 5.76516 20.4853 3.51472C18.2349 1.26428 15.1826 0 12 0ZM12 22.1486C9.99281 22.1486 8.03069 21.5534 6.36176 20.4382C4.69284 19.3231 3.39207 17.7381 2.62395 15.8837C1.85583 14.0293 1.65485 11.9887 2.04644 10.0201C2.43802 8.05148 3.40458 6.24318 4.82388 4.82388C6.24319 3.40457 8.05149 2.43802 10.0201 2.04643C11.9887 1.65485 14.0293 1.85582 15.8837 2.62394C17.7381 3.39206 19.3231 4.69283 20.4382 6.36176C21.5534 8.03068 22.1486 9.9928 22.1486 12C22.1486 13.3327 21.8861 14.6524 21.3761 15.8837C20.866 17.115 20.1185 18.2337 19.1761 19.1761C18.2337 20.1185 17.115 20.866 15.8837 21.3761C14.6524 21.8861 13.3327 22.1486 12 22.1486Z" fill="#686E8B"/>
</g>
<defs>
<clipPath id="clip0_39_1554">
<rect width="24" height="24" fill="white"/>
</clipPath>
</defs>
</svg>
