<svg width="28" height="28" viewBox="0 0 28 28" fill="none" xmlns="http://www.w3.org/2000/svg">
<path d="M13.6461 9.51426C14.4033 9.51426 14.8972 9.00398 14.8972 8.26324C14.8972 7.52249 14.3869 7.01221 13.6461 7.01221C12.9219 7.01221 12.1482 7.48957 12.1482 8.26324C12.1482 9.02044 12.9219 9.51426 13.6461 9.51426Z" fill="#1890FF"/>
<path d="M8.19746 8.24712C8.19746 7.50638 7.68717 6.99609 6.94643 6.99609C6.22215 6.99609 5.44849 7.47346 5.44849 8.24712C5.44849 9.02079 6.22215 9.49815 6.94643 9.49815C7.70363 9.51461 8.19746 9.00432 8.19746 8.24712Z" fill="#1890FF"/>
<path d="M28 17.1028C28 15.2592 27.177 13.4814 25.6955 12.0987C24.2305 10.7324 22.2716 9.8929 20.1975 9.71183C20.1975 9.67891 20.1975 9.64599 20.1975 9.61306C19.3251 5.56368 14.9794 2.50195 10.0741 2.50195C4.51029 2.50195 0 6.37027 0 11.1275C0 13.6624 1.28395 15.967 3.73663 17.7612L2.89712 20.2962C2.83128 20.4937 2.89712 20.6913 3.04527 20.8229C3.19342 20.9546 3.42387 20.9711 3.58848 20.8888L6.78189 19.2921L7.16049 19.3744H7.17696C8.16461 19.5719 9.02058 19.753 10.0741 19.753C10.2716 19.753 11.0288 19.6871 11.2757 19.5719C12.4938 22.5349 15.7531 24.5266 19.4074 24.5266C20.3292 24.5266 21.2675 24.3127 22.2058 24.0822L24.6584 25.4155C24.7243 25.4485 24.8066 25.4814 24.8889 25.4814C25.0041 25.4814 25.1193 25.4485 25.2016 25.3661C25.3663 25.2345 25.4156 25.0369 25.3663 24.8394L24.7407 22.7818C26.8313 21.1192 28 19.0945 28 17.1028ZM23.6379 21.9752C23.4733 22.0904 23.4074 22.3044 23.4733 22.4855L23.8189 23.6542L22.3374 22.8476C22.2716 22.8147 22.1893 22.7818 22.107 22.7818C22.0741 22.7818 22.0247 22.7818 21.9918 22.7982C21.1358 23.0122 20.2469 23.2427 19.3745 23.2427C15.3745 23.2427 12.1152 20.4937 12.1152 17.1192C12.1152 13.7448 15.3745 10.9958 19.3745 10.9958C23.3086 10.9958 26.6173 13.7941 26.6173 17.1192C26.6337 18.7982 25.5802 20.5266 23.6379 21.9752ZM4.97119 17.5143C5.03704 17.3168 4.97119 17.1028 4.79012 16.9711C2.4856 15.3579 1.31687 13.3991 1.31687 11.1439C1.31687 7.07808 5.23457 3.76944 10.0576 3.76944C14.2716 3.76944 18.0412 6.33734 18.8642 9.74475C14.3704 9.84352 10.7325 13.0369 10.7325 16.9052C10.7325 17.4155 10.7984 17.9423 10.9465 18.469C10.93 18.469 10.8971 18.469 10.8807 18.469C10.6173 18.4855 10.3374 18.502 10.0576 18.502C9.11934 18.502 8.31276 18.3373 7.44033 18.1563L6.91358 18.0575C6.81482 18.041 6.69959 18.0575 6.60082 18.0904L4.41152 19.1933L4.97119 17.5143Z" fill="#686E8B"/>
<path d="M16.7571 13.9424C16.2469 13.9424 15.7366 14.4527 15.7366 14.963C15.7366 15.4732 16.2469 15.9835 16.7571 15.9835C17.5308 15.9835 18.0082 15.4568 18.0082 14.963C18.0082 14.4691 17.5308 13.9424 16.7571 13.9424Z" fill="#1890FF"/>
<path d="M22.0083 13.9424C21.498 13.9424 21.0042 14.4527 21.0042 14.963C21.0042 15.4732 21.498 15.9835 22.0083 15.9835C22.7819 15.9835 23.2593 15.4568 23.2593 14.963C23.2593 14.4691 22.7819 13.9424 22.0083 13.9424Z" fill="#1890FF"/>
</svg>
