<svg width="24" height="24" viewBox="0 0 24 24" fill="none" xmlns="http://www.w3.org/2000/svg">
<path d="M12 2.1632C17.426 2.1632 21.8369 6.57403 21.8369 12C21.8369 17.426 17.426 21.8369 12 21.8369C6.57403 21.8369 2.1632 17.426 2.1632 12C2.1632 6.57403 6.57403 2.1632 12 2.1632ZM12 0C5.37761 0 0 5.37761 0 12C0 18.6224 5.37761 24 12 24C18.6224 24 24 18.6224 24 12C24 5.37761 18.6224 0 12 0Z" fill="#303030"/>
<path d="M18.671 13.0756H5.32953C4.85823 13.0756 4.48364 12.5923 4.48364 12.0001C4.48364 11.408 4.85823 10.9246 5.32953 10.9246H18.6587C19.1302 10.9246 19.5046 11.4079 19.5046 12.0001C19.5169 12.6043 19.1302 13.0756 18.671 13.0756Z" fill="#303030"/>
<path d="M10.9246 18.671V5.32953C10.9246 4.85823 11.4079 4.48364 12.0001 4.48364C12.5923 4.48364 13.0756 4.85823 13.0756 5.32953V18.6587C13.0756 19.1302 12.5923 19.5046 12.0001 19.5046C11.3959 19.5169 10.9246 19.1302 10.9246 18.671Z" fill="#303030"/>
</svg>
