<svg width="20" height="20" viewBox="0 0 20 20" fill="none" xmlns="http://www.w3.org/2000/svg">
<g clip-path="url(#clip0_92_1040)">
<path d="M19.1091 9.00098C19.6593 9.00098 20.1062 9.44787 20.1062 9.99805C20.1057 10.548 19.6594 10.9941 19.1091 10.9941H0.891357C0.341334 10.9941 -0.105466 10.548 -0.105713 9.99805C-0.105713 9.44814 0.340908 9.00098 0.891357 9.00098H19.1091Z" fill="#050505" stroke="#050505" stroke-width="0.3"/>
<path d="M10.0007 -0.108398C10.5507 -0.108151 10.9968 0.338648 10.9968 0.888672V19.1074C10.9963 19.6567 10.5506 20.1023 10.0007 20.1025C9.45056 20.1025 9.00366 19.6566 9.00366 19.1064V0.888672C9.00366 0.33877 9.45028 -0.108398 10.0007 -0.108398Z" fill="#050505" stroke="#050505" stroke-width="0.3"/>
</g>
<defs>
<clipPath id="clip0_92_1040">
<rect width="20" height="20" fill="white"/>
</clipPath>
</defs>
</svg>
