<svg width="20" height="20" viewBox="0 0 20 20" fill="none" xmlns="http://www.w3.org/2000/svg">
<g clip-path="url(#clip0_92_1038)">
<path d="M8.85816 15.5057C5.18945 15.5057 2.21526 12.5307 2.21526 8.86086C2.21526 5.19098 5.18925 2.21601 8.85816 2.21601C12.5271 2.21601 15.5011 5.19098 15.5011 8.86086C15.5012 9.73335 15.3295 10.5973 14.9957 11.4034C14.6619 12.2096 14.1726 12.942 13.5558 13.5591C12.9389 14.1761 12.2066 14.6656 11.4006 14.9996C10.5946 15.3336 9.73064 15.5056 8.85816 15.5057ZM19.4869 17.3774L16.0885 13.9774C18.7459 10.2204 18.0852 5.05387 14.5681 2.08691C11.0509 -0.880054 5.84842 -0.659158 2.59553 2.59471C-0.657369 5.84859 -0.87846 11.053 2.08772 14.5712C5.0539 18.0893 10.2189 18.7508 13.9747 16.0922L17.3827 19.4922C17.5179 19.6458 17.6832 19.7701 17.8684 19.8572C18.0536 19.9443 18.2547 19.9925 18.4593 19.9987C18.6639 20.005 18.8676 19.9691 19.0577 19.8934C19.2479 19.8177 19.4205 19.7038 19.5648 19.5587C19.7091 19.4136 19.8221 19.2404 19.8968 19.0498C19.9714 18.8592 20.0061 18.6554 19.9988 18.4508C19.9914 18.2463 19.9422 18.0454 19.854 17.8607C19.7659 17.676 19.6407 17.5114 19.4864 17.377L19.4869 17.3774Z" fill="#050505"/>
</g>
<defs>
<clipPath id="clip0_92_1038">
<rect width="20" height="20" fill="white"/>
</clipPath>
</defs>
</svg>
