<svg width="24" height="24" viewBox="0 0 24 24" fill="none" xmlns="http://www.w3.org/2000/svg">
<path d="M23.196 9.21612C22.992 8.65212 22.488 8.23212 21.9 8.14812L16.032 7.27212L13.476 1.98012C13.2 1.41612 12.624 1.06812 12 1.06812C11.364 1.06812 10.788 1.42812 10.524 1.98012L7.96802 7.28412L2.10002 8.16012C1.50002 8.24412 1.00802 8.65212 0.804022 9.22812C0.612022 9.79212 0.756022 10.4161 1.18802 10.8361L5.48402 15.1201L4.48802 21.0841C4.39202 21.6841 4.64402 22.2961 5.16002 22.6321C5.67602 22.9801 6.33602 23.0161 6.88802 22.7281L12 19.9681L17.124 22.7281C17.676 23.0161 18.336 22.9801 18.852 22.6321C19.356 22.2841 19.62 21.6841 19.524 21.0841L18.528 15.1201L22.836 10.8241C23.244 10.4041 23.388 9.78012 23.196 9.21612ZM17.352 14.0161C16.992 14.3761 16.824 14.8801 16.908 15.3841L17.904 21.3481L12.78 18.6001C12.288 18.3361 11.7 18.3361 11.208 18.6001L6.08402 21.3481L7.08002 15.3841C7.16402 14.8801 6.99602 14.3761 6.63602 14.0161L2.35202 9.72012L8.22002 8.84412C8.74802 8.77212 9.21602 8.43612 9.44402 7.95612L12 2.66412L14.556 7.95612C14.796 8.43612 15.252 8.77212 15.78 8.84412L21.648 9.72012L17.352 14.0161Z" fill="#4E5470"/>
</svg>
