<svg width="10" height="6" viewBox="0 0 10 6" fill="none" xmlns="http://www.w3.org/2000/svg">
<path d="M9.13699 0.760896L5.55859 5.4999C5.49333 5.5863 5.40892 5.65639 5.31199 5.70465C5.21507 5.75292 5.10826 5.77804 4.99999 5.77804C4.89171 5.77804 4.78491 5.75292 4.68798 5.70465C4.59105 5.65639 4.50664 5.5863 4.44139 5.4999L0.862987 0.761595C0.823619 0.709649 0.799539 0.647742 0.793458 0.582848C0.787377 0.517954 0.799538 0.452651 0.82857 0.394296C0.857602 0.335941 0.902352 0.286851 0.957779 0.252558C1.01321 0.218264 1.07711 0.200129 1.14229 0.200196H8.85699C8.9221 0.200098 8.98596 0.218168 9.04137 0.252375C9.09678 0.286582 9.14155 0.335568 9.17064 0.393827C9.19973 0.452085 9.212 0.517304 9.20605 0.58215C9.20011 0.646997 9.17619 0.708899 9.13699 0.760896Z" fill="#BFBFBF"/>
</svg>
