<svg width="28" height="28" viewBox="0 0 28 28" fill="none" xmlns="http://www.w3.org/2000/svg">
<path d="M12.7801 2.64606L3.89853 10.4814C3.69992 10.6566 3.54087 10.872 3.43193 11.1134C3.32298 11.3548 3.26665 11.6166 3.26666 11.8814V24.2667C3.26666 24.7618 3.46333 25.2366 3.8134 25.5867C4.16346 25.9367 4.63826 26.1334 5.13333 26.1334H22.8667C23.3617 26.1334 23.8365 25.9367 24.1866 25.5867C24.5367 25.2366 24.7333 24.7618 24.7333 24.2667V11.88C24.7333 11.6157 24.6772 11.3545 24.5687 11.1136C24.4601 10.8726 24.3017 10.6575 24.1038 10.4823L15.2521 2.64792C14.9112 2.34617 14.4718 2.17939 14.0165 2.17896C13.5613 2.17853 13.1216 2.34448 12.7801 2.64559V2.64606ZM5.13333 11.8814L14.0149 4.04512L22.8667 11.88V24.2667H5.13333V11.8814Z" fill="#686E8B"/>
<path d="M14.9333 16.3332V22.3999H13.0667V16.3332C13.0667 16.2107 13.0908 16.0893 13.1377 15.9761C13.1846 15.8628 13.2533 15.7599 13.34 15.6733C13.4267 15.5866 13.5296 15.5179 13.6428 15.4709C13.756 15.424 13.8774 15.3999 14 15.3999C14.1226 15.3999 14.2439 15.424 14.3572 15.4709C14.4704 15.5179 14.5733 15.5866 14.66 15.6733C14.7466 15.7599 14.8154 15.8628 14.8623 15.9761C14.9092 16.0893 14.9333 16.2107 14.9333 16.3332Z" fill="#C6C8D3"/>
</svg>
