<svg width="16" height="16" viewBox="0 0 16 16" fill="none" xmlns="http://www.w3.org/2000/svg">
<g clip-path="url(#clip0_6_2082)">
<path d="M7.08657 12.4046C4.1516 12.4046 1.77225 10.0246 1.77225 7.08869C1.77225 4.15278 4.15145 1.77281 7.08657 1.77281C10.0217 1.77281 12.4009 4.15278 12.4009 7.08869C12.401 7.78668 12.2636 8.47785 11.9966 9.12275C11.7296 9.76764 11.3382 10.3536 10.8447 10.8473C10.3512 11.3409 9.76533 11.7325 9.12051 11.9997C8.4757 12.2669 7.78456 12.4045 7.08657 12.4046ZM15.5896 13.9019L12.8709 11.1819C14.9968 8.17633 14.4682 4.04309 11.6545 1.66953C8.84077 -0.704043 4.67879 -0.527326 2.07647 2.07577C-0.525846 4.67887 -0.702719 8.84242 1.67022 11.6569C4.04317 14.4714 8.17516 15.0006 11.1798 12.8738L13.9062 15.5938C14.0144 15.7167 14.1466 15.8161 14.2948 15.8858C14.4429 15.9555 14.6038 15.994 14.7675 15.999C14.9312 16.004 15.0941 15.9753 15.2462 15.9148C15.3983 15.8542 15.5364 15.763 15.6519 15.647C15.7673 15.5309 15.8577 15.3923 15.9175 15.2398C15.9772 15.0874 16.005 14.9243 15.9991 14.7607C15.9932 14.597 15.9538 14.4364 15.8833 14.2886C15.8127 14.1408 15.7126 14.0091 15.5891 13.9016L15.5896 13.9019Z" fill="#686E8B"/>
</g>
<defs>
<clipPath id="clip0_6_2082">
<rect width="16" height="16" fill="white"/>
</clipPath>
</defs>
</svg>
