<svg width="20" height="20" viewBox="0 0 20 20" fill="none" xmlns="http://www.w3.org/2000/svg">
<g clip-path="url(#clip0_33_974)">
<path d="M18.1313 11.864C18.1308 11.7582 18.1516 11.6534 18.1923 11.5558C18.233 11.4582 18.2929 11.3697 18.3684 11.2956C18.4439 11.2216 18.5335 11.1634 18.6318 11.1245C18.7302 11.0857 18.8354 11.067 18.9411 11.0695C19.0488 11.0586 19.1576 11.0716 19.2598 11.1074C19.3619 11.1433 19.4549 11.2012 19.5322 11.277C19.6095 11.3528 19.6691 11.4447 19.7069 11.5461C19.7447 11.6476 19.7597 11.7561 19.7509 11.864V16.7297C19.748 17.0855 19.6749 17.4372 19.5357 17.7647C19.3966 18.0922 19.1942 18.3889 18.9401 18.638C18.686 18.8871 18.3852 19.0835 18.0551 19.2161C17.7249 19.3487 17.3718 19.4148 17.016 19.4106H2.73493C2.37914 19.4148 2.02603 19.3487 1.69585 19.2161C1.36567 19.0835 1.0649 18.8871 0.810814 18.638C0.556724 18.3889 0.354305 18.0922 0.215166 17.7647C0.0760279 17.4372 0.00290785 17.0855 0 16.7297L0 3.82022C0.00291267 3.46443 0.0760362 3.11271 0.215177 2.78524C0.354317 2.45777 0.556737 2.161 0.810827 1.91193C1.06492 1.66286 1.36568 1.46641 1.69586 1.33383C2.02604 1.20125 2.37915 1.13517 2.73493 1.13936H9.82549C9.9312 1.137 10.0363 1.15583 10.1346 1.19473C10.2329 1.23363 10.3224 1.29182 10.3979 1.36586C10.4734 1.43991 10.5333 1.52831 10.574 1.62586C10.6148 1.72341 10.6356 1.82813 10.6353 1.93386C10.6353 2.42983 10.2298 2.52974 9.82549 2.52974H2.73493C2.56973 2.5332 2.40689 2.56957 2.25592 2.63674C2.10496 2.70391 1.96892 2.80051 1.85575 2.9209C1.74258 3.04129 1.65457 3.18305 1.59686 3.33788C1.53915 3.4927 1.51291 3.65748 1.51967 3.82257V16.7297C1.52702 17.0475 1.65814 17.3499 1.88512 17.5725C2.1121 17.7951 2.41701 17.9203 2.73493 17.9215H16.9161C17.234 17.9203 17.5389 17.7951 17.7659 17.5725C17.9929 17.3499 18.124 17.0475 18.1313 16.7297V11.864Z" fill="#4E5470"/>
<path d="M14.7806 1.95161C14.704 1.87904 14.6428 1.79186 14.6004 1.69522C14.5581 1.59859 14.5356 1.49446 14.5342 1.38897C14.5328 1.28349 14.5525 1.17879 14.5922 1.08106C14.632 0.983328 14.6908 0.894545 14.7654 0.819949C14.84 0.745354 14.9288 0.686459 15.0266 0.64674C15.1243 0.607022 15.229 0.587284 15.3345 0.588694C15.44 0.590103 15.5441 0.61263 15.6407 0.654945C15.7374 0.697261 15.8245 0.758507 15.8971 0.835068L19.4477 4.38566C19.6163 4.55099 19.7503 4.74831 19.8418 4.96607C19.9332 5.18382 19.9804 5.41763 19.9804 5.65381C19.9804 5.88999 19.9332 6.1238 19.8418 6.34155C19.7503 6.5593 19.6163 6.75662 19.4477 6.92196L15.8924 10.4737C15.743 10.6153 15.5443 10.693 15.3385 10.6902C15.1327 10.6875 14.9361 10.6045 14.7906 10.459C14.645 10.3135 14.5621 10.1169 14.5593 9.91107C14.5566 9.70527 14.6343 9.50653 14.7759 9.35716L18.3265 5.9077C18.4275 5.80661 18.4275 5.60328 18.3265 5.60328L14.7806 1.95161Z" fill="#4E5470"/>
<path d="M19.2444 4.83697C19.4444 4.88058 19.6197 5.00018 19.7333 5.17055C19.8469 5.34091 19.8899 5.54873 19.8532 5.75017C19.8281 5.84438 19.7842 5.93257 19.7243 6.00947C19.6644 6.08638 19.5895 6.15043 19.5043 6.19781C19.4191 6.24519 19.3252 6.27493 19.2283 6.28525C19.1313 6.29557 19.0333 6.28627 18.94 6.25789C16.5319 5.65793 13.9841 6.03638 11.8543 7.31041C9.72458 8.58443 8.18625 10.6503 7.57602 13.0558C7.55205 13.1521 7.50896 13.2425 7.44931 13.3218C7.38966 13.401 7.31467 13.4675 7.2288 13.5172C7.14294 13.5668 7.04796 13.5987 6.94951 13.6109C6.85107 13.6231 6.75118 13.6153 6.65579 13.5881C6.56041 13.5609 6.47147 13.5148 6.39429 13.4525C6.3171 13.3902 6.25325 13.3129 6.20653 13.2254C6.1598 13.1379 6.13117 13.0419 6.12233 12.9431C6.11349 12.8443 6.12462 12.7448 6.15506 12.6504C6.48607 11.2691 7.09 9.96797 7.9313 8.82356C8.77261 7.67915 9.8343 6.71456 11.0539 5.98653C12.2735 5.25851 13.6264 4.78177 15.033 4.58435C16.4396 4.38693 17.8715 4.47282 19.2444 4.83697Z" fill="#4E5470"/>
</g>
<defs>
<clipPath id="clip0_33_974">
<rect width="20" height="20" fill="white"/>
</clipPath>
</defs>
</svg>
