<svg width="28" height="28" viewBox="0 0 28 28" fill="none" xmlns="http://www.w3.org/2000/svg">
<path d="M24.2731 10.3961L18.9493 9.06175C18.8509 9.03714 18.7661 8.97425 18.7114 8.88949L15.7993 4.24105C15.6735 4.04144 15.504 3.87191 15.3044 3.74613C14.5716 3.28675 13.6036 3.50824 13.1442 4.24105L10.2267 8.89222C10.172 8.97699 10.0872 9.03988 9.98877 9.06449L4.66494 10.3989C4.43526 10.4563 4.22198 10.5657 4.03877 10.7188C3.37432 11.2739 3.28682 12.2637 3.8419 12.9282L4.76065 14.0274L5.92549 14.1313C11.438 14.6235 16.2997 18.0578 18.613 23.0973L19.1298 24.2211L19.704 24.4508C19.9228 24.5383 20.1606 24.5766 20.3985 24.5602C21.2626 24.5 21.9134 23.7535 21.856 22.8895L21.4786 17.4153C21.4704 17.3141 21.5032 17.2157 21.5688 17.1364L25.0907 12.9282C25.2438 12.7477 25.3505 12.5317 25.4106 12.302C25.6212 11.4571 25.1126 10.6067 24.2731 10.3961Z" fill="#16B3B2"/>
<path d="M5.8269 15.2906L7.36909 17.1336C7.43472 17.2102 7.46753 17.3114 7.45933 17.4125L7.08198 22.884C7.06558 23.1192 7.10386 23.3571 7.19136 23.5785C7.43745 24.1883 8.02534 24.5602 8.64605 24.5602C8.84019 24.5602 9.03979 24.5246 9.2312 24.4453L14.3226 22.3946C14.3691 22.3754 14.4183 22.3672 14.4703 22.3672C14.5195 22.3672 14.5687 22.3754 14.6179 22.3946L17.5574 23.5785C15.4628 19.0231 11.0496 15.7555 5.8269 15.2906Z" fill="#16B3B2"/>
</svg>
