<svg width="28" height="28" viewBox="0 0 28 28" fill="none" xmlns="http://www.w3.org/2000/svg">
<g clip-path="url(#clip0_53_923)">
<path d="M28.0001 7.29171V23.0417C27.9996 23.4284 27.8459 23.799 27.5725 24.0724C27.2991 24.3458 26.9284 24.4996 26.5417 24.5H2.62508C2.23844 24.4996 1.86776 24.3458 1.59436 24.0724C1.32097 23.799 1.16718 23.4284 1.16675 23.0417V3.79171C1.16718 3.40507 1.32097 3.03439 1.59436 2.761C1.86776 2.4876 2.23844 2.33381 2.62508 2.33338H10.721C10.9126 2.33285 11.1024 2.37033 11.2794 2.44364C11.4564 2.51696 11.6171 2.62465 11.7522 2.76049L14.7396 5.74788C14.7666 5.77509 14.7987 5.79665 14.8341 5.81133C14.8695 5.82601 14.9075 5.8335 14.9458 5.83338H26.5417C26.9284 5.83381 27.2991 5.9876 27.5725 6.261C27.8459 6.53439 27.9996 6.90507 28.0001 7.29171ZM19.4324 14.0225C19.3987 13.919 19.3368 13.8269 19.2536 13.7567C19.1704 13.6866 19.0692 13.6411 18.9615 13.6254L16.297 13.2384L15.1066 10.8253C15.0584 10.7276 14.9839 10.6454 14.8915 10.5879C14.799 10.5304 14.6923 10.4999 14.5834 10.4999C14.4745 10.4999 14.3678 10.5304 14.2754 10.5879C14.1829 10.6454 14.1084 10.7276 14.0602 10.8253L12.8699 13.2384L10.2066 13.6254C10.099 13.6411 9.99785 13.6865 9.91468 13.7566C9.83151 13.8267 9.76959 13.9187 9.73592 14.0221C9.70225 14.1255 9.69816 14.2363 9.72413 14.3419C9.75009 14.4475 9.80506 14.5438 9.88284 14.6198L11.8098 16.4974L11.3541 19.15C11.3357 19.2572 11.3477 19.3675 11.3887 19.4683C11.4298 19.5691 11.4982 19.6565 11.5862 19.7204C11.6743 19.7844 11.7785 19.8225 11.887 19.8303C11.9956 19.8382 12.1042 19.8155 12.2005 19.7648L14.5834 18.5141L16.9654 19.7663C17.0618 19.8169 17.1703 19.8396 17.2789 19.8318C17.3875 19.8239 17.4916 19.7859 17.5797 19.7219C17.6678 19.6579 17.7362 19.5706 17.7772 19.4698C17.8182 19.369 17.8302 19.2587 17.8118 19.1514L17.3561 16.4989L19.2831 14.6213C19.3615 14.5454 19.417 14.4491 19.4434 14.3432C19.4698 14.2374 19.466 14.1263 19.4324 14.0225Z" fill="#16B3B2"/>
</g>
<defs>
<clipPath id="clip0_53_923">
<rect width="28" height="28" fill="white"/>
</clipPath>
</defs>
</svg>
