<svg width="42" height="42" viewBox="0 0 42 42" fill="none" xmlns="http://www.w3.org/2000/svg">
<path d="M33.2383 4.12109H7.14638C5.87212 4.12109 4.84619 5.15109 4.84619 6.42129C4.84619 7.69555 5.87619 8.72148 7.14638 8.72148H33.2383C34.5126 8.72148 35.5385 7.69148 35.5385 6.42129C35.5385 5.14702 34.5085 4.12109 33.2383 4.12109ZM32.4648 24.0778C32.4648 24.0778 25.8899 17.4948 21.7292 13.3259C21.2529 12.8496 20.7481 12.6013 20.2473 12.585V37.879H23.2599C24.9535 37.879 26.3255 36.507 26.3255 34.8134V27.1434H30.93C35.5344 27.1434 32.4648 24.0778 32.4648 24.0778ZM8.02575 24.0778C8.02575 24.0778 4.96018 27.1434 9.56057 27.1434H14.165V34.8134C14.165 36.507 15.537 37.879 17.2306 37.879H20.2432V12.585C19.7425 12.6013 19.2417 12.8455 18.7613 13.3259C14.6006 17.4948 8.02575 24.0778 8.02575 24.0778Z" fill="url(#paint0_linear_52_909)"/>
<defs>
<linearGradient id="paint0_linear_52_909" x1="20.1923" y1="4.12109" x2="20.1923" y2="37.879" gradientUnits="userSpaceOnUse">
<stop stop-color="#16B3B2"/>
<stop offset="1" stop-color="#D5FFFF"/>
</linearGradient>
</defs>
</svg>
