<svg width="28" height="28" viewBox="0 0 28 28" fill="none" xmlns="http://www.w3.org/2000/svg">
<path d="M25.376 16.1642C24.9441 15.991 24.5741 15.6921 24.3139 15.3063C24.0537 14.9205 23.9154 14.4654 23.9167 14.0001V13.9818C23.9146 13.5165 24.0522 13.0613 24.3117 12.675C24.5712 12.2888 24.9407 11.9893 25.3723 11.8155C26.0742 11.5302 26.4391 10.74 26.2029 10.0159C25.9929 9.37343 25.7324 8.74859 25.4239 8.14722C25.2551 7.8203 24.969 7.56926 24.623 7.44442C24.2769 7.31957 23.8964 7.33014 23.5578 7.47401C23.13 7.65473 22.658 7.70374 22.2022 7.61478C21.7464 7.52582 21.3275 7.30294 20.999 6.97462C20.6706 6.6463 20.4475 6.22748 20.3584 5.77172C20.2692 5.31595 20.318 4.84395 20.4986 4.41607C20.793 3.71862 20.4929 2.90196 19.8155 2.5567C19.2136 2.25052 18.5884 1.9925 17.9458 1.78505C17.2212 1.55117 16.4318 1.91849 16.1489 2.62123C15.9763 3.05325 15.6781 3.42354 15.2927 3.68421C14.9074 3.94488 14.4527 4.08394 13.9875 4.08339H13.9837C13.5187 4.08461 13.0641 3.94644 12.6785 3.68671C12.2929 3.42699 11.994 3.05763 11.8204 2.62633C11.5359 1.92451 10.746 1.55956 10.0225 1.79526C9.38005 2.00465 8.75526 2.26469 8.15398 2.57292C7.47749 2.91927 7.17963 3.73703 7.47585 4.43375C7.62689 4.78859 7.68762 5.17533 7.65261 5.55938C7.6176 5.94344 7.48795 6.31282 7.27525 6.63451C7.06256 6.95619 6.77344 7.22014 6.43377 7.40275C6.0941 7.58536 5.71446 7.68093 5.32882 7.68091C5.01879 7.68142 4.7118 7.61987 4.42593 7.4999C4.0875 7.35738 3.70783 7.34749 3.36244 7.47219C3.01475 7.5965 2.72778 7.8491 2.56036 8.17821C2.25352 8.7804 1.99477 9.4059 1.78653 10.0489C1.55247 10.7733 1.91942 11.5619 2.62197 11.8461C3.05362 12.0197 3.42352 12.3184 3.68415 12.7038C3.94479 13.0892 4.08426 13.5437 4.08465 14.0089C4.08504 14.4742 3.94634 14.9289 3.68635 15.3148C3.42637 15.7006 3.05697 15.9999 2.62562 16.1742C1.92361 16.4588 1.55812 17.2498 1.79364 17.9731C2.00282 18.6153 2.26255 19.2399 2.57038 19.841C2.69333 20.0799 2.87968 20.2802 3.10899 20.4201C3.3383 20.5599 3.6017 20.634 3.8703 20.634C4.06291 20.6341 4.25357 20.5954 4.43085 20.5201C4.85883 20.3377 5.33155 20.2875 5.78829 20.3758C6.24504 20.4641 6.66497 20.6869 6.99415 21.0156C7.32334 21.3443 7.54675 21.7639 7.6357 22.2206C7.72465 22.6772 7.67508 23.15 7.49335 23.5782C7.19822 24.2755 7.49773 25.0923 8.17476 25.4376C8.77654 25.7445 9.40169 26.0034 10.0443 26.2116C10.1888 26.2585 10.3397 26.2823 10.4915 26.2823C11.0701 26.2823 11.6162 25.936 11.8419 25.3771C12.0149 24.9452 12.3134 24.5752 12.6989 24.3148C13.0845 24.0545 13.5392 23.9158 14.0044 23.9167H14.0055C14.4707 23.9154 14.9256 24.0537 15.3113 24.3137C15.6971 24.5737 15.996 24.9434 16.1693 25.3751C16.4535 26.0774 17.2434 26.4435 17.9676 26.2081C18.6099 25.9993 19.2346 25.7399 19.836 25.4325C20.5128 25.0861 20.8114 24.2693 20.5157 23.5722C20.3329 23.1444 20.2826 22.6716 20.3713 22.2149C20.4601 21.7583 20.6839 21.3387 21.0137 21.0106L21.0214 21.003C21.3495 20.6757 21.768 20.454 22.2231 20.3663C22.6781 20.2786 23.149 20.3289 23.5753 20.5108C24.2724 20.8061 25.0883 20.5071 25.4347 19.8301C25.7418 19.2287 26.0008 18.6039 26.2092 17.9616C26.4448 17.2379 26.0785 16.448 25.376 16.1642ZM17.5001 14.0001C17.5001 15.93 15.93 17.5001 14.0001 17.5001C12.0701 17.5001 10.5001 15.93 10.5001 14.0001C10.5001 12.0701 12.0701 10.5001 14.0001 10.5001C15.93 10.5001 17.5001 12.0701 17.5001 14.0001Z" fill="#16B3B2"/>
</svg>
