<svg width="28" height="28" viewBox="0 0 28 28" fill="none" xmlns="http://www.w3.org/2000/svg">
<path d="M16.5099 1.87708H11.2094C10.5592 1.87708 10.0395 2.45553 10.0395 3.17053C10.0395 3.88718 10.5602 4.46734 11.2094 4.46734H16.5427C17.1602 4.46734 17.6807 3.88718 17.6807 3.17053C17.6809 2.4555 17.1609 1.87708 16.5099 1.87708ZM22.2655 2.74037H19.6259C19.6528 2.8821 19.6683 3.02544 19.6683 3.17053C19.6691 4.2593 18.8793 5.33086 17.9397 5.33086H9.83059C8.84182 5.33086 8.05094 4.2593 8.05094 3.17053C8.05189 3.02544 8.06739 2.8821 8.09422 2.74037H5.42279C3.27539 2.74037 2.7478 3.9578 2.7478 5.71403V23.1104C2.7478 24.997 3.50329 26.0529 5.58494 26.0529H22.1031C24.1848 26.0529 25.1968 25.225 25.1968 23.1113V5.714C25.1969 3.95794 24.2495 2.74051 22.2655 2.74051L22.2655 2.74037ZM19.5536 19.9166H8.07517C7.65209 19.9166 7.22975 19.3976 7.22975 18.9738C7.22975 18.5515 7.58721 18.1898 8.01031 18.1898H19.4559C19.8789 18.1898 20.2363 18.5186 20.2684 18.9738C20.2684 19.3977 19.9765 19.9166 19.5536 19.9166ZM19.6002 15.3104H8.12167C7.69854 15.3104 7.42914 14.8555 7.42914 14.4314C7.42914 14.0075 7.78677 13.5836 8.2097 13.5836H19.6553C20.0785 13.5836 20.4359 13.9764 20.4678 14.4314C20.4679 14.8553 20.0224 15.3104 19.6002 15.3104ZM19.6002 10.5797H8.12167C7.69854 10.5797 7.42914 10.1246 7.42914 9.70068C7.42914 9.27674 7.78677 8.85283 8.2097 8.85283H19.6553C20.0785 8.85283 20.4359 9.24577 20.4678 9.70068C20.4679 10.1246 20.0224 10.5797 19.6002 10.5797Z" fill="#16B3B2"/>
</svg>
