<svg width="42" height="42" viewBox="0 0 42 42" fill="none" xmlns="http://www.w3.org/2000/svg">
<g clip-path="url(#clip0_50_899)">
<path d="M21 0C9.40256 0 0 9.40256 0 21C0 32.5974 9.40256 42 21 42C32.5974 42 42 32.5974 42 21C42 9.40256 32.5974 0 21 0ZM20.9617 32.9808C16.0927 32.9808 11.9329 29.885 10.3323 25.5527L10.3514 25.5431C10.2556 25.3419 10.1885 25.131 10.1885 24.8914C10.1885 24.0671 10.8594 23.3962 11.6837 23.3962C12.345 23.3962 12.8914 23.8371 13.0831 24.4313L13.1022 24.4217C14.2524 27.6613 17.3387 29.9904 20.9712 29.9904C25.5815 29.9904 29.3291 26.2428 29.3291 21.6326C29.3291 17.0224 25.5815 13.2748 20.9712 13.2748C19.9649 13.2748 18.9968 13.476 18.1054 13.8019L19.1597 15.8147C19.2843 15.9489 19.361 16.131 19.361 16.3227C19.361 16.7444 18.9489 17.0607 18.6038 17.0703H18.5559L11.099 16.754C10.8307 16.7444 10.5911 16.5911 10.4665 16.3514C10.3419 16.1118 10.361 15.8339 10.4952 15.6038L14.492 9.30671C14.6358 9.08626 14.885 8.95208 15.1534 8.96166C15.4217 8.97125 15.6613 9.1246 15.7859 9.36422L16.7061 11.1278C18.0192 10.5911 19.4665 10.2939 20.9712 10.2939C27.2204 10.2939 32.3099 15.3834 32.3099 21.6326C32.3003 27.8914 27.2204 32.9808 20.9617 32.9808Z" fill="url(#paint0_linear_50_899)"/>
</g>
<defs>
<linearGradient id="paint0_linear_50_899" x1="21" y1="0" x2="21" y2="42" gradientUnits="userSpaceOnUse">
<stop stop-color="#63B6FE"/>
<stop offset="1" stop-color="#DDEEFF"/>
</linearGradient>
<clipPath id="clip0_50_899">
<rect width="42" height="42" fill="white"/>
</clipPath>
</defs>
</svg>
