<svg width="28" height="28" viewBox="0 0 28 28" fill="none" xmlns="http://www.w3.org/2000/svg">
<path d="M26.8954 22.412C26.9879 22.6895 27.0587 23.0486 27.1022 23.4839C27.1457 23.9192 27.1675 23.5709 27.1675 24.0062C27.1675 24.4415 27.1348 24.855 27.075 25.2468C27.0097 25.6386 26.9118 25.9324 26.7866 26.1337C26.6941 26.2643 26.4275 26.4003 25.9922 26.5527C25.5569 26.705 21.0136 28 14.6257 28C8.7874 28 3.7598 27.0532 2.95996 26.8737C2.16011 26.6941 1.68129 26.5418 1.51262 26.4166C1.30586 26.2643 1.1535 25.8127 1.05556 25.0564C0.957624 24.2946 0.995712 24.1042 1.18071 22.918C1.29497 22.2324 1.57247 21.7101 2.0132 21.3618C2.45937 21.0082 2.98716 20.7307 3.58569 20.5293C4.18965 20.3226 6.98638 19.3595 7.62844 19.1908C8.27049 19.0222 8.83092 18.7827 9.30974 18.4672C9.7015 18.2277 10.0008 17.9938 10.213 17.7707C10.4252 17.5476 10.5775 17.3245 10.6591 17.1014C10.7408 16.8784 10.7843 16.6498 10.7843 16.405C10.7843 16.1656 10.7734 15.9044 10.7571 15.6215C10.719 15.1753 10.5775 14.8325 10.3272 14.5931C10.0769 14.3537 9.79944 14.1034 9.47842 13.8422C9.32607 13.7116 9.20092 13.5321 9.08666 13.2981C8.97239 13.0641 8.87445 12.8302 8.78195 12.5908C8.68946 12.3133 8.59696 12.0249 8.50446 11.7311C8.37387 11.693 8.24328 11.6331 8.1127 11.5352C7.99843 11.4427 7.87873 11.3121 7.74814 11.1434C7.61755 10.9747 7.50873 10.7353 7.41079 10.4197C7.31829 10.1096 7.28565 9.82122 7.31829 9.57093C7.3455 9.32064 7.39447 9.10299 7.47064 8.91799C7.54138 8.71123 7.65564 8.52079 7.80799 8.33035C7.79167 7.62845 7.82432 6.9211 7.92226 6.21376C7.99299 5.62068 8.12902 4.98951 8.3249 4.32025C8.52078 3.65099 8.80372 3.04703 9.17372 2.5138C9.52739 2.01321 9.91915 1.59969 10.3544 1.27322C10.7897 0.946755 11.2305 0.691022 11.6766 0.506024C12.1228 0.321026 12.569 0.19588 13.026 0.114264C13.4776 0.043529 13.9184 0 14.3482 0C14.8815 0 15.4038 0.0652934 15.8935 0.19588C16.3832 0.326467 16.8403 0.489701 17.2701 0.696463C17.6945 0.903226 18.0808 1.12631 18.4073 1.3766C18.7446 1.62689 19.0113 1.88263 19.218 2.1438C19.6805 2.73688 20.0287 3.38982 20.2627 4.1026C20.4967 4.81539 20.6599 5.48465 20.747 6.11582C20.8612 6.85581 20.9048 7.60124 20.8884 8.34124C21.019 8.41197 21.1224 8.52623 21.1931 8.67859C21.2639 8.80917 21.3292 8.97241 21.3727 9.17917C21.4162 9.38593 21.4217 9.63078 21.3836 9.93004C21.3292 10.3218 21.2367 10.6265 21.1224 10.8605C20.9973 11.0944 20.8667 11.274 20.7198 11.4046C20.5511 11.5569 20.377 11.6549 20.192 11.7093C20.1212 12.0031 20.0342 12.2969 19.9417 12.569C19.8492 12.8084 19.7404 13.0478 19.6261 13.2763C19.501 13.5103 19.3704 13.6899 19.2235 13.8204C19.0548 13.9728 18.9024 14.0925 18.7501 14.1959C18.5977 14.2938 18.4726 14.4026 18.3583 14.5115C18.2441 14.6257 18.1516 14.7563 18.0808 14.9141C18.0101 15.0719 17.9502 15.2623 17.9122 15.4854C17.8577 15.7629 17.8414 16.0459 17.8577 16.3342C17.8741 16.6172 17.9502 16.911 18.0808 17.1939C18.2114 17.4769 18.4236 17.7544 18.7229 18.0155C19.0167 18.2767 19.4193 18.5052 19.9199 18.712C20.3824 18.897 20.8939 19.0602 21.438 19.1963C21.9876 19.3377 24.1912 20.2845 24.6972 20.4804C25.2033 20.6763 25.6603 20.9211 26.0575 21.2149C26.4438 21.5414 26.7268 21.9277 26.8954 22.412ZM14.5332 26.1935C14.6257 26.1935 14.7672 26.1337 14.9631 26.014C15.1589 25.8888 15.3494 25.7528 15.5344 25.5841C15.7194 25.4155 15.8826 25.2468 16.0186 25.0836C16.1601 24.9149 16.2254 24.7897 16.2254 24.6918C16.2254 24.5775 16.1982 24.3871 16.1438 24.1042C16.0894 23.8267 16.0186 23.5165 15.9479 23.1901C15.8772 22.8527 15.7956 22.5262 15.7248 22.1998C15.6541 21.8733 15.5834 21.6121 15.5289 21.4054C15.7139 21.253 15.8717 21.0952 16.0023 20.9211C16.1329 20.7415 16.1982 20.562 16.1982 20.377C16.1982 20.2246 16.1492 20.0777 16.0458 19.9199C15.9479 19.7621 15.8282 19.6316 15.6976 19.5173C15.5453 19.3867 15.3929 19.2561 15.2242 19.1255H13.8368C13.6518 19.2561 13.494 19.3867 13.3634 19.5173C13.2491 19.6316 13.1512 19.7567 13.0587 19.9091C12.9662 20.0614 12.9172 20.2029 12.9172 20.3552C12.9172 20.4695 12.9825 20.6164 13.124 20.8014C13.2654 20.9864 13.4341 21.166 13.6354 21.3292C13.581 21.4979 13.5048 21.7373 13.4123 22.0529C13.3198 22.363 13.2328 22.6949 13.1512 23.0431C13.0696 23.3859 12.9934 23.7124 12.9281 24.0171C12.8628 24.3218 12.8356 24.5449 12.8356 24.6972C12.8356 24.7897 12.9009 24.9203 13.0424 25.089C13.1838 25.2577 13.3471 25.4264 13.5429 25.5896C13.7388 25.7583 13.9293 25.8997 14.1143 26.0194C14.3047 26.1283 14.4462 26.1935 14.5332 26.1935Z" fill="#16B3B2"/>
</svg>
