<svg width="28" height="28" viewBox="0 0 28 28" fill="none" xmlns="http://www.w3.org/2000/svg">
<path d="M14 21.18C11.8783 21.1803 9.84333 20.3377 8.34285 18.8376C6.84237 17.3375 5.99927 15.3027 5.999 13.181C5.99873 11.0593 6.84133 9.02433 8.34144 7.52385C9.84154 6.02337 11.8763 5.18027 13.998 5.18C16.1197 5.18012 18.1544 6.02303 19.6546 7.52331C21.1547 9.02359 21.9975 11.0583 21.9975 13.18C21.9975 15.3017 21.1547 17.3364 19.6546 18.8367C18.1544 20.337 16.1197 21.1799 13.998 21.18M24.956 2.324L14 0L3.044 2.324C2.75444 2.38019 2.49288 2.53391 2.30291 2.75954C2.11294 2.98518 2.00603 3.2691 2 3.564V16.28C2 18.832 3.338 21.218 5.56 22.634L14 28L22.438 22.632C24.664 21.216 25.998 18.83 25.998 16.278V3.566C25.9925 3.27104 25.8861 2.98687 25.6965 2.76086C25.5069 2.53485 25.2455 2.38066 24.956 2.324Z" fill="#16B3B2"/>
<path d="M7.6001 13.18C7.60033 14.3762 7.93576 15.5483 8.56834 16.5635C9.20092 17.5787 10.1053 18.3963 11.179 18.9235C12.2527 19.4508 13.4526 19.6666 14.6427 19.5465C15.8328 19.4264 16.9654 18.9752 17.9121 18.244L8.9361 9.26804C8.06827 10.3873 7.59817 11.7638 7.6001 13.18ZM17.9381 8.13404C16.8131 7.25481 15.4259 6.77808 13.9981 6.78004C12.573 6.77729 11.1882 7.25343 10.0661 8.13204L19.0461 17.116C20.0895 15.7781 20.5589 14.0806 20.3511 12.3967C20.1433 10.7128 19.2754 9.18026 17.9381 8.13604" fill="#16B3B2"/>
</svg>
