<svg width="28" height="28" viewBox="0 0 28 28" fill="none" xmlns="http://www.w3.org/2000/svg">
<g clip-path="url(#clip0_53_926)">
<path opacity="0.01" d="M0 0H28V28H0V0Z" fill="#16B3B2"/>
<path d="M2.80005 1.86668C2.80005 1.74412 2.82419 1.62275 2.87109 1.50951C2.918 1.39627 2.98675 1.29338 3.07342 1.20672C3.16008 1.12005 3.26297 1.0513 3.37621 1.0044C3.48945 0.957491 3.61082 0.93335 3.73338 0.93335H24.2667C24.3893 0.93335 24.5106 0.957491 24.6239 1.0044C24.7371 1.0513 24.84 1.12005 24.9267 1.20672C25.0133 1.29338 25.0821 1.39627 25.129 1.50951C25.1759 1.62275 25.2 1.74412 25.2 1.86668V19.2136C25.2 19.4611 25.1016 19.6985 24.9266 19.8735L18.0068 26.7932C17.8319 26.9683 17.5945 27.0666 17.347 27.0667H3.73338C3.61082 27.0667 3.48945 27.0425 3.37621 26.9956C3.26297 26.9487 3.16008 26.88 3.07342 26.7933C2.98675 26.7066 2.918 26.6038 2.87109 26.4905C2.82419 26.3773 2.80005 26.2559 2.80005 26.1333V1.86668Z" fill="#16B3B2"/>
<path d="M6.53333 6.53331C6.53333 6.41074 6.55747 6.28938 6.60437 6.17614C6.65128 6.0629 6.72002 5.96001 6.80669 5.87334C6.89336 5.78667 6.99625 5.71793 7.10949 5.67102C7.22272 5.62412 7.34409 5.59998 7.46666 5.59998H20.5333C20.7809 5.59998 21.0183 5.69831 21.1933 5.87334C21.3683 6.04838 21.4667 6.28577 21.4667 6.53331C21.4667 6.78084 21.3683 7.01824 21.1933 7.19328C21.0183 7.36831 20.7809 7.46664 20.5333 7.46664H7.46666C7.34409 7.46664 7.22272 7.4425 7.10949 7.3956C6.99625 7.34869 6.89336 7.27994 6.80669 7.19328C6.72002 7.10661 6.65128 7.00372 6.60437 6.89048C6.55747 6.77724 6.53333 6.65588 6.53333 6.53331ZM6.53333 12.1333C6.53333 12.0107 6.55747 11.8894 6.60437 11.7761C6.65128 11.6629 6.72002 11.56 6.80669 11.4733C6.89336 11.3867 6.99625 11.3179 7.10949 11.271C7.22272 11.2241 7.34409 11.2 7.46666 11.2H20.5333C20.7809 11.2 21.0183 11.2983 21.1933 11.4733C21.3683 11.6484 21.4667 11.8858 21.4667 12.1333C21.4667 12.3808 21.3683 12.6182 21.1933 12.7933C21.0183 12.9683 20.7809 13.0666 20.5333 13.0666H7.46666C7.34409 13.0666 7.22272 13.0425 7.10949 12.9956C6.99625 12.9487 6.89336 12.8799 6.80669 12.7933C6.72002 12.7066 6.65128 12.6037 6.60437 12.4905C6.55747 12.3772 6.53333 12.2559 6.53333 12.1333ZM7.46666 16.8C7.21912 16.8 6.98173 16.8983 6.80669 17.0733C6.63166 17.2484 6.53333 17.4858 6.53333 17.7333C6.53333 17.9808 6.63166 18.2182 6.80669 18.3933C6.98173 18.5683 7.21912 18.6666 7.46666 18.6666H13.0667C13.3142 18.6666 13.5516 18.5683 13.7266 18.3933C13.9017 18.2182 14 17.9808 14 17.7333C14 17.4858 13.9017 17.2484 13.7266 17.0733C13.5516 16.8983 13.3142 16.8 13.0667 16.8H7.46666Z" fill="white"/>
<path d="M17.7333 20.5333C17.7333 20.4107 17.7574 20.2894 17.8043 20.1761C17.8512 20.0629 17.92 19.96 18.0066 19.8733C18.0933 19.7867 18.1962 19.7179 18.3094 19.671C18.4227 19.6241 18.544 19.6 18.6666 19.6H24.975C24.9933 19.6002 25.0111 19.6058 25.0262 19.6161C25.0413 19.6264 25.053 19.6409 25.06 19.6578C25.067 19.6747 25.0688 19.6932 25.0653 19.7112C25.0618 19.7291 25.0531 19.7456 25.0403 19.7586L17.8929 26.908C17.8798 26.9211 17.8631 26.9301 17.845 26.9338C17.8268 26.9374 17.8079 26.9356 17.7908 26.9285C17.7737 26.9213 17.7591 26.9093 17.7488 26.8938C17.7386 26.8784 17.7332 26.8602 17.7333 26.8417V20.5333Z" fill="#99F3F2"/>
</g>
<defs>
<clipPath id="clip0_53_926">
<rect width="28" height="28" fill="white"/>
</clipPath>
</defs>
</svg>
