<svg width="42" height="42" viewBox="0 0 42 42" fill="none" xmlns="http://www.w3.org/2000/svg">
<path d="M34.5613 27.9675C35.6138 27.1922 36.4695 26.1805 37.0594 25.0139C37.6492 23.8474 37.9569 22.5585 37.9574 21.2513C38.0049 20.1547 37.8299 19.0599 37.443 18.0328C37.0561 17.0056 36.4653 16.0674 35.7061 15.2747C34.947 14.482 34.0352 13.8511 33.0258 13.4201C32.0163 12.9891 30.9301 12.767 29.8325 12.767C28.7349 12.767 27.6487 12.9891 26.6392 13.4201C25.6298 13.8511 24.718 14.482 23.9589 15.2747C23.1997 16.0674 22.6089 17.0056 22.222 18.0328C21.8351 19.0599 21.6601 20.1547 21.7076 21.2513C21.705 22.5607 22.0129 23.8521 22.6058 25.0195C23.1988 26.187 24.0601 27.1972 25.119 27.9675C23.0087 29.0363 21.2109 30.6332 19.9006 32.6027C18.5902 34.5722 17.8119 36.8473 17.6414 39.2068C17.6414 39.9835 18.0373 40.5927 18.7836 40.5927H40.8358C41.582 40.5927 41.978 39.9835 41.978 39.2068C41.8033 36.8543 41.0284 34.5859 39.7272 32.6182C38.4261 30.6506 36.6423 29.0493 34.546 27.9675H34.5613Z" fill="url(#paint0_linear_50_905)"/>
<path d="M21.3269 27.2517C20.3556 26.0387 19.6402 24.6414 19.224 23.1441C18.8078 21.6469 18.6994 20.0808 18.9054 18.5405C19.3272 15.6976 20.8542 13.1362 23.1544 11.4132C24.5999 10.4068 26.2654 9.76131 28.0115 9.53078C29.7576 9.30025 31.5336 9.49137 33.1906 10.0881C36.1604 11.2151 36.2365 12.4183 36.5868 12.4183C36.7648 12.4163 36.9407 12.3793 37.1044 12.3093C37.268 12.2393 37.4163 12.1378 37.5408 12.0105C37.6652 11.8832 37.7634 11.7327 37.8297 11.5675C37.8959 11.4023 37.929 11.2256 37.927 11.0476V8.73275C38.0013 6.85776 37.33 5.02964 36.06 3.64829C34.79 2.26694 33.0245 1.44479 31.1499 1.36169L6.78281 1.36169C4.90818 1.44478 3.14275 2.26692 1.8727 3.64828C0.602656 5.02963 -0.0686258 6.85775 0.0056968 8.73275V32.6734C-0.0686258 34.5484 0.602656 36.3765 1.8727 37.7578C3.14275 39.1392 4.90818 39.9613 6.78281 40.0444H12.1892C12.359 40.0658 12.5314 40.0513 12.6951 40.0016C12.8589 39.952 13.0103 39.8684 13.1396 39.7563C13.2689 39.6443 13.3732 39.5062 13.4456 39.3512C13.518 39.1962 13.5569 39.0276 13.5598 38.8565C13.6262 37.7981 13.9005 36.7631 14.367 35.8107C15.0969 34.0966 16.0772 32.5005 17.2758 31.0743C18.4331 29.6099 19.7978 28.3221 21.3269 27.2517ZM9.49363 7.28596H19.3471C19.5789 7.29189 19.8006 7.38153 19.9714 7.53831C20.1422 7.69509 20.2504 7.9084 20.2761 8.13881C20.3021 8.28213 20.2989 8.42924 20.2667 8.5713C20.2345 8.71336 20.1739 8.84744 20.0885 8.9655C20.0032 9.08355 19.8949 9.18315 19.7701 9.2583C19.6453 9.33345 19.5066 9.38261 19.3623 9.40283H9.56977C9.43318 9.41856 9.29481 9.40427 9.16433 9.36097C9.03384 9.31766 8.91438 9.24638 8.81431 9.1521C8.71423 9.05783 8.63595 8.94284 8.58494 8.81516C8.53393 8.68749 8.51141 8.55022 8.51896 8.41294C8.51074 8.27844 8.52965 8.14365 8.57456 8.0166C8.61948 7.88955 8.68948 7.77283 8.78041 7.67338C8.87133 7.57393 8.98133 7.49377 9.10385 7.43768C9.22638 7.38159 9.35893 7.3507 9.49363 7.34687V7.28596ZM5.77769 7.02705C6.01348 7.02339 6.24606 7.082 6.45195 7.19698C6.65784 7.31196 6.82975 7.47924 6.95031 7.68191C7.06944 7.88513 7.13224 8.11643 7.13224 8.35199C7.13224 8.58755 7.06944 8.81886 6.95031 9.02207C6.82975 9.22476 6.65784 9.39204 6.45194 9.50703C6.24605 9.62202 6.01345 9.68064 5.77765 9.67697C5.42748 9.67508 5.0923 9.53466 4.84536 9.28639C4.59842 9.03811 4.4598 8.70218 4.4598 8.35201C4.4598 8.00184 4.59842 7.66591 4.84536 7.41763C5.0923 7.16936 5.42752 7.02894 5.77769 7.02705ZM13.4989 26.3227H5.38162C5.21537 26.3417 5.04699 26.3252 4.88753 26.2745C4.72806 26.2239 4.5811 26.1401 4.45627 26.0286C4.33145 25.9172 4.23157 25.7807 4.16319 25.6279C4.0948 25.4752 4.05945 25.3098 4.05945 25.1425C4.05945 24.9751 4.0948 24.8097 4.16319 24.657C4.23157 24.5043 4.33145 24.3677 4.45627 24.2563C4.5811 24.1449 4.72806 24.0611 4.88753 24.0104C5.04699 23.9597 5.21537 23.9433 5.38162 23.9622H13.4989C13.6652 23.9433 13.8336 23.9597 13.993 24.0104C14.1525 24.0611 14.2995 24.1449 14.4243 24.2563C14.5491 24.3677 14.649 24.5043 14.7174 24.657C14.7858 24.8097 14.8211 24.9751 14.8211 25.1425C14.8211 25.3098 14.7858 25.4752 14.7174 25.6279C14.649 25.7807 14.5491 25.9172 14.4243 26.0286C14.2995 26.1401 14.1525 26.2239 13.993 26.2745C13.8336 26.3252 13.6652 26.3417 13.4989 26.3227ZM16.225 19.637H5.3817C4.62021 19.637 4.01104 19.2258 4.04153 18.4491C4.04257 18.2802 4.07918 18.1134 4.14896 17.9595C4.21875 17.8057 4.32016 17.6682 4.44658 17.5562C4.57301 17.4441 4.72162 17.3599 4.88273 17.3091C5.04385 17.2583 5.21386 17.242 5.3817 17.2612H16.2251C16.3925 17.2444 16.5615 17.2624 16.7216 17.3141C16.8817 17.3658 17.0294 17.4501 17.1553 17.5617C17.2812 17.6733 17.3826 17.8098 17.4531 17.9625C17.5237 18.1152 17.5619 18.2809 17.5652 18.4491C17.5666 18.6188 17.5317 18.7868 17.4627 18.9419C17.3937 19.0969 17.2923 19.2353 17.1653 19.3479C17.0383 19.4604 16.8887 19.5445 16.7265 19.5944C16.5643 19.6442 16.3933 19.6588 16.225 19.637Z" fill="url(#paint1_linear_50_905)"/>
<defs>
<linearGradient id="paint0_linear_50_905" x1="29.8097" y1="12.767" x2="29.8097" y2="40.5927" gradientUnits="userSpaceOnUse">
<stop stop-color="#FA6564"/>
<stop offset="1" stop-color="#FB8D74"/>
</linearGradient>
<linearGradient id="paint1_linear_50_905" x1="18.9663" y1="1.36169" x2="18.9663" y2="40.054" gradientUnits="userSpaceOnUse">
<stop stop-color="#F95F60"/>
<stop offset="1" stop-color="#FFA996"/>
</linearGradient>
</defs>
</svg>
