<svg width="42" height="42" viewBox="0 0 42 42" fill="none" xmlns="http://www.w3.org/2000/svg">
<path d="M12.3733 6.73763H25.7646C26.6041 6.73763 27.4437 6.06597 27.4437 5.05847V1.67916C27.4437 0.671664 26.6041 0 25.7646 0H12.3733C11.5337 0 10.6941 0.671664 10.6941 1.67916V5.05847C10.6941 6.06597 11.5337 6.73763 12.3733 6.73763Z" fill="url(#paint0_linear_50_894)"/>
<path d="M24.3583 38.8515C24.3583 38.5787 24.6312 38.3058 24.6312 38.0539C24.6312 37.7811 24.904 37.7811 24.904 37.5082L25.4498 36.9625L26.2474 36.1649L27.5907 34.8215L35.7976 26.3628V5.05843C35.7976 4.05094 34.958 3.37927 34.1184 3.37927H29.1019V5.05843C29.1019 6.90551 27.5907 8.43774 25.7436 8.43774H12.3733C10.5262 8.43774 9.01499 6.9265 9.01499 5.05843V3.37927H3.9985C3.15892 3.37927 2.31934 4.05094 2.31934 5.05843V38.7676C2.31934 39.7751 3.15892 40.4467 3.9985 40.4467H23.7286C23.7496 40.3628 23.7916 40.2998 23.8336 40.2159C24.1064 39.6701 24.3583 39.1244 24.3583 38.8515ZM13.1919 15.1544H24.904C25.4078 15.1544 25.7436 15.4902 25.7436 15.994C25.7436 16.4977 25.4078 16.8335 24.904 16.8335H13.1919C12.6882 16.8335 12.3523 16.4977 12.3523 15.994C12.3733 15.5112 12.6882 15.1544 13.1919 15.1544ZM9.85457 21.913H28.2624C28.7661 21.913 29.1019 22.2488 29.1019 22.7526C29.1019 23.2563 28.7661 23.5922 28.2624 23.5922H9.85457C9.35082 23.5922 9.01499 23.2563 9.01499 22.7526C9.01499 22.2488 9.35082 21.913 9.85457 21.913ZM9.01499 29.4902C9.01499 28.9865 9.35082 28.6506 9.85457 28.6506H28.2624C28.7661 28.6506 29.1019 28.9865 29.1019 29.4902C29.1019 29.994 28.7661 30.3298 28.2624 30.3298H9.85457C9.35082 30.3298 9.01499 29.994 9.01499 29.4902ZM32.1664 39.1244L30.8441 40.4467H34.1184C34.958 40.4467 35.7976 39.7751 35.7976 38.7676V35.4932L34.0345 37.2563L32.1664 39.1244Z" fill="url(#paint1_linear_50_894)"/>
<path d="M40.7511 27.2234L39.5337 26.006C39.0299 25.5022 38.1904 25.5022 37.6866 26.006L36.1544 27.5382L39.2188 30.6027L40.7511 29.0705C40.8755 28.951 40.9745 28.8076 41.0422 28.6489C41.1098 28.4902 41.1447 28.3194 41.1447 28.1469C41.1447 27.9744 41.1098 27.8037 41.0422 27.645C40.9745 27.4863 40.8755 27.3429 40.7511 27.2234ZM27.2338 36.4378L30.2983 39.5022L38.6521 31.2534L35.5877 28.1889L27.2338 36.4378ZM24.7571 42L29.6686 40.069L26.6251 37.0255L24.7571 42Z" fill="url(#paint2_linear_50_894)"/>
<defs>
<linearGradient id="paint0_linear_50_894" x1="19.0689" y1="0" x2="19.0689" y2="6.73763" gradientUnits="userSpaceOnUse">
<stop stop-color="#F38326"/>
<stop offset="0.980769" stop-color="#FFE8CA"/>
</linearGradient>
<linearGradient id="paint1_linear_50_894" x1="19.0585" y1="3.37927" x2="19.0585" y2="40.4467" gradientUnits="userSpaceOnUse">
<stop stop-color="#F38326"/>
<stop offset="0.980769" stop-color="#FFE8CA"/>
</linearGradient>
<linearGradient id="paint2_linear_50_894" x1="32.9509" y1="25.6282" x2="32.9509" y2="42" gradientUnits="userSpaceOnUse">
<stop stop-color="#F38326"/>
<stop offset="0.980769" stop-color="#FFE8CA"/>
</linearGradient>
</defs>
</svg>
