<svg width="24" height="24" viewBox="0 0 24 24" fill="none" xmlns="http://www.w3.org/2000/svg">
<path d="M17.7795 21.6799H5.59904C3.91294 21.6799 2.54138 20.3081 2.54138 18.6227V6.73565C2.54138 5.05026 3.91318 3.67847 5.59904 3.67847H11.2831C11.8583 3.67847 12.3247 4.14487 12.3247 4.72003C12.3247 5.29519 11.8583 5.76159 11.2831 5.76159H5.59904C5.06185 5.76159 4.62451 6.19847 4.62451 6.73565V18.6227C4.62451 19.1599 5.06185 19.5967 5.59904 19.5967H17.7795C18.3167 19.5967 18.754 19.1599 18.754 18.6227V11.8436C18.754 11.2685 19.2204 10.8021 19.7956 10.8021C20.3708 10.8021 20.8372 11.2685 20.8372 11.8436V18.6227C20.8372 20.3081 19.4656 21.6799 17.7795 21.6799Z" fill="#16B3B2"/>
<path d="M8.93791 15.9099C8.66322 15.9099 8.39767 15.8016 8.2015 15.6047C8.08981 15.4932 8.00499 15.3577 7.95345 15.2085C7.90192 15.0593 7.88504 14.9003 7.90408 14.7436C8.18673 12.3985 9.26251 10.1872 10.9327 8.517L16.5345 2.91521C17.3548 2.0963 18.687 2.0963 19.5052 2.91521L20.891 4.30106C21.7104 5.11997 21.7104 6.45286 20.891 7.27177L15.2895 12.8736C13.6193 14.5437 11.4077 15.6195 9.06259 15.9022C9.02087 15.9073 8.97916 15.9099 8.93791 15.9099ZM18.0321 4.38802L12.4055 9.98981C11.4197 10.9756 10.6915 12.1962 10.2846 13.5216C11.61 13.1147 12.8306 12.3865 13.8164 11.4008L19.4182 5.79895C19.4248 5.79239 19.4248 5.78067 19.4182 5.77411L18.0321 4.38802Z" fill="#16B3B2"/>
</svg>
