<svg width="16" height="16" viewBox="0 0 16 16" fill="none" xmlns="http://www.w3.org/2000/svg">
<path d="M11.853 14.4533H3.73265C2.60859 14.4533 1.69421 13.5388 1.69421 12.4152V4.49052C1.69421 3.36692 2.60874 2.45239 3.73265 2.45239H7.52203C7.90546 2.45239 8.2164 2.76333 8.2164 3.14677C8.2164 3.53021 7.90546 3.84114 7.52203 3.84114H3.73265C3.37453 3.84114 3.08296 4.13239 3.08296 4.49052V12.4152C3.08296 12.7733 3.37453 13.0646 3.73265 13.0646H11.853C12.2111 13.0646 12.5027 12.7733 12.5027 12.4152V7.89583C12.5027 7.51239 12.8136 7.20145 13.197 7.20145C13.5805 7.20145 13.8914 7.51239 13.8914 7.89583V12.4152C13.8914 13.5388 12.977 14.4533 11.853 14.4533Z" fill="#418CFF"/>
<path d="M5.95856 10.6065C5.77544 10.6065 5.59841 10.5343 5.46763 10.4031C5.39317 10.3287 5.33662 10.2384 5.30226 10.1389C5.26791 10.0395 5.25665 9.93347 5.26934 9.82901C5.45778 8.26558 6.17497 6.79136 7.28841 5.67792L11.0229 1.94339C11.5698 1.39745 12.4579 1.39745 13.0034 1.94339L13.9273 2.86729C14.4736 3.41323 14.4736 4.30183 13.9273 4.84776L10.1929 8.58229C9.0795 9.69573 7.60513 10.4129 6.04169 10.6014C6.01388 10.6048 5.98606 10.6065 5.95856 10.6065ZM12.0214 2.92526L8.27028 6.65979C7.61309 7.31698 7.12763 8.13073 6.85638 9.01433C7.73997 8.74308 8.55372 8.25761 9.21091 7.60042L12.9454 3.86589C12.9498 3.86151 12.9498 3.8537 12.9454 3.84933L12.0214 2.92526Z" fill="#418CFF"/>
</svg>
