<svg width="24" height="24" viewBox="0 0 24 24" fill="none" xmlns="http://www.w3.org/2000/svg">
<path d="M10.289 20.8383H4.71558V3.22031H13.9664V7.65703C13.9664 8.12344 14.3437 8.50078 14.8101 8.50078H19.2468V14.175C19.2468 14.6414 19.6242 15.0187 20.0906 15.0187C20.557 15.0187 20.9343 14.6414 20.9343 14.175V7.65703V7.61484C20.9343 7.59609 20.932 7.57734 20.9296 7.55859C20.9296 7.55625 20.9296 7.55156 20.9273 7.54922C20.9226 7.50938 20.9156 7.47188 20.9039 7.43438V7.43203C20.8921 7.39219 20.8804 7.35469 20.864 7.31719V7.31484C20.857 7.29609 20.8476 7.27969 20.8382 7.26094V7.25859L20.8101 7.20938C20.8078 7.20703 20.8078 7.20469 20.8054 7.20234C20.796 7.18828 20.7867 7.17188 20.775 7.15781C20.775 7.15547 20.7726 7.15547 20.7726 7.15313C20.7609 7.13906 20.7492 7.12266 20.7374 7.10859C20.7351 7.10625 20.7328 7.10156 20.7281 7.09922C20.7164 7.08516 20.7023 7.07109 20.6906 7.05703L15.4054 1.77891C15.3914 1.76484 15.3796 1.75313 15.3656 1.74141C15.3632 1.73906 15.3585 1.73672 15.3562 1.73203C15.3421 1.72031 15.3281 1.70859 15.3117 1.69688C15.3093 1.69453 15.3093 1.69453 15.307 1.69453C15.2929 1.68516 15.2789 1.67344 15.2625 1.66406C15.2601 1.66172 15.2578 1.66172 15.2554 1.65938C15.239 1.65 15.2226 1.63828 15.2039 1.63125H15.2015C15.1851 1.62187 15.1664 1.6125 15.1476 1.60547H15.1453C15.1078 1.58906 15.0703 1.575 15.0304 1.56563C14.9929 1.55625 14.9554 1.54688 14.9156 1.54219C14.9132 1.54219 14.9085 1.54219 14.9062 1.53984C14.8875 1.5375 14.8687 1.53516 14.85 1.53516H4.34058C3.61636 1.53516 3.02808 2.12344 3.02808 2.84766V21.2156C3.02808 21.9398 3.61636 22.5281 4.34058 22.5281H10.289C10.7554 22.5281 11.1328 22.1508 11.1328 21.6844C11.1328 21.2156 10.7554 20.8383 10.289 20.8383ZM15.6515 6.81328V4.41328L18.0515 6.81328H15.6515Z" fill="#4E5470"/>
<path d="M20.8898 18.7172L16.7414 15.757C16.5375 15.6117 16.2562 15.757 16.2562 16.0078V18.1242H12.3304C11.864 18.1242 11.4867 18.5015 11.4867 18.968C11.4867 19.4344 11.864 19.8117 12.3304 19.8117H16.2562V21.9281C16.2562 22.1789 16.5398 22.3242 16.7414 22.1789L20.8898 19.2187C21.0633 19.0969 21.0633 18.8414 20.8898 18.7172Z" fill="#4E5470"/>
</svg>
