<svg width="18" height="18" viewBox="0 0 18 18" fill="none" xmlns="http://www.w3.org/2000/svg">
<g clip-path="url(#clip0_87_714)">
<path d="M1.35002 6.5249C1.12502 6.5249 0.900024 6.7499 0.900024 6.8624V10.1249C0.900024 10.3499 1.01252 10.4624 1.23752 10.4624C1.46252 10.4624 1.68752 10.2374 1.68752 10.1249V6.8624C1.68752 6.7499 1.46252 6.5249 1.35002 6.5249ZM14.625 7.7624L8.88752 10.6874L3.37502 7.8749L2.70002 7.5374V14.7374C3.48752 16.0874 5.96252 17.0999 9.00002 17.0999C12.0375 17.0999 14.5125 16.0874 15.3 14.7374V7.3124L14.625 7.7624Z" fill="#C0C5CC"/>
<path d="M17.8875 5.0626C17.8875 4.9501 17.775 4.9501 17.6625 4.8376L9.22499 0.900098C9.11249 0.900098 8.99999 0.787598 8.88749 0.900098L0.337494 4.8376C0.112494 4.8376 -6.33299e-06 5.0626 0.112494 5.2876C0.112494 5.4001 0.224994 5.4001 0.337494 5.5126L2.69999 6.6376L3.37499 6.9751L8.66249 9.4501C8.77499 9.4501 8.88749 9.5626 8.99999 9.4501L13.725 7.3126L16.2 6.1876L17.55 5.5126C17.8875 5.4001 18 5.1751 17.8875 5.0626Z" fill="#C0C5CC"/>
</g>
<defs>
<clipPath id="clip0_87_714">
<rect width="18" height="18" fill="white"/>
</clipPath>
</defs>
</svg>
