<svg width="18" height="18" viewBox="0 0 18 18" fill="none" xmlns="http://www.w3.org/2000/svg">
<path d="M16.5 9.762V14.25C16.5 14.447 16.4612 14.642 16.3858 14.824C16.3104 15.006 16.1999 15.1714 16.0606 15.3107C15.9214 15.4499 15.756 15.5604 15.574 15.6358C15.392 15.7112 15.197 15.75 15 15.75H2.99999C2.803 15.75 2.60795 15.7112 2.42596 15.6358C2.24397 15.5604 2.07861 15.4499 1.93933 15.3107C1.80004 15.1714 1.68955 15.006 1.61417 14.824C1.53879 14.642 1.49999 14.447 1.49999 14.25V9.762C3.63524 10.707 6.18374 11.25 8.99999 11.25C11.8155 11.25 14.3632 10.707 16.5 9.762ZM13.125 2.25C13.4234 2.25 13.7095 2.36853 13.9205 2.5795C14.1315 2.79048 14.25 3.07663 14.25 3.375V4.8735H15C15.197 4.8735 15.392 4.9123 15.574 4.98768C15.756 5.06306 15.9214 5.17355 16.0606 5.31284C16.1999 5.45213 16.3104 5.61749 16.3858 5.79947C16.4612 5.98146 16.5 6.17652 16.5 6.3735V8.61975C14.3955 9.585 11.8035 10.125 8.99999 10.125C6.19649 10.125 3.60374 9.58425 1.49924 8.61975L1.49999 6.3735C1.49999 6.17652 1.53879 5.98146 1.61417 5.79947C1.68955 5.61749 1.80004 5.45213 1.93933 5.31284C2.07861 5.17355 2.24397 5.06306 2.42596 4.98768C2.60795 4.9123 2.803 4.8735 2.99999 4.8735H3.74999V3.375C3.75 3.09534 3.85418 2.82571 4.0422 2.61869C4.23023 2.41167 4.48862 2.2821 4.76699 2.25525L4.87499 2.25H13.125ZM9.74999 7.125H8.24999C8.05883 7.12521 7.87496 7.19841 7.73596 7.32964C7.59696 7.46086 7.51331 7.64021 7.50211 7.83105C7.4909 8.02188 7.55299 8.20978 7.67569 8.35637C7.79838 8.50296 7.97241 8.59717 8.16224 8.61975L8.24999 8.625H9.74999C9.9489 8.625 10.1397 8.54598 10.2803 8.40533C10.421 8.26468 10.5 8.07391 10.5 7.875C10.5 7.67609 10.421 7.48532 10.2803 7.34467C10.1397 7.20402 9.9489 7.125 9.74999 7.125ZM12.75 3.75H5.24999V4.8735H12.75V3.75Z" fill="#C0C5CC"/>
</svg>
