<svg width="14" height="14" viewBox="0 0 14 14" fill="none" xmlns="http://www.w3.org/2000/svg">
<ellipse cx="7.5" cy="7" rx="5.5" ry="6" fill="white"/>
<g clip-path="url(#clip0_62_682)">
<path d="M7 0C3.134 0 0 3.134 0 7C0 10.866 3.134 14 7 14C10.866 14 14 10.866 14 7C14 3.134 10.866 0 7 0ZM10.3029 8.88545L9.07281 9.61972L9.80713 10.8499C10.0101 11.19 9.89932 11.6291 9.55914 11.8321C9.21904 12.0351 8.77997 11.9243 8.57695 11.5842L7.84263 10.354L6.61252 11.0883C6.2724 11.2914 5.83334 11.1805 5.63033 10.8404C5.42731 10.5003 5.53812 10.0612 5.87824 9.85822L7.10836 9.12394L6.69678 8.43445C5.29889 8.88764 3.72089 8.34045 2.93669 7.02671C2.0258 5.50072 2.52596 3.51701 4.05193 2.60611C5.57792 1.69522 7.56143 2.19639 8.47232 3.72237C9.25652 5.03611 8.98928 6.68477 7.92696 7.70013L8.33853 8.38962L9.56864 7.65534C9.90875 7.45233 10.3478 7.56315 10.5508 7.90326C10.7539 8.24338 10.643 8.68243 10.3029 8.88545Z" fill="#FF7373"/>
<path d="M4.78622 3.8362C3.93809 4.34248 3.66052 5.44421 4.16682 6.2924C4.67273 7.13994 5.77383 7.41782 6.62196 6.91155C7.47015 6.40525 7.74807 5.30421 7.24216 4.45668C6.73585 3.60848 5.63441 3.32988 4.78622 3.8362Z" fill="#FF7373"/>
</g>
<defs>
<clipPath id="clip0_62_682">
<rect width="14" height="14" fill="white"/>
</clipPath>
</defs>
</svg>
