<svg width="18" height="18" viewBox="0 0 18 18" fill="none" xmlns="http://www.w3.org/2000/svg">
<g clip-path="url(#clip0_61_630)">
<path d="M9.43829 15.1227C8.96671 14.8626 8.199 14.8644 7.7301 15.1227L4.41629 16.947C3.474 17.4663 2.85571 16.992 3.03571 15.8958L3.6684 12.0321C3.75839 11.4813 3.5199 10.7181 3.1401 10.3311L0.459895 7.59334C-0.303295 6.81482 -0.0621053 6.05253 0.987291 5.89232L4.69171 5.32982C5.2191 5.24882 5.83921 4.77542 6.0741 4.27773L7.731 0.763233C8.2026 -0.236681 8.9694 -0.233077 9.43829 0.763233L11.0943 4.27863C11.331 4.77903 11.9538 5.25063 12.4776 5.33073L16.182 5.89411C17.2368 6.05432 17.469 6.81842 16.7103 7.59423L14.0292 10.3302C13.6476 10.7199 13.4118 11.4849 13.5009 12.0321L14.1336 15.8958C14.3136 16.9956 13.6917 17.4636 12.753 16.947L9.43829 15.1227Z" fill="#C0C5CC"/>
</g>
<defs>
<clipPath id="clip0_61_630">
<rect width="18" height="18" fill="white"/>
</clipPath>
</defs>
</svg>
