<svg width="14" height="14" viewBox="0 0 14 14" fill="none" xmlns="http://www.w3.org/2000/svg">
<ellipse cx="7" cy="7.5" rx="6" ry="5.5" fill="white"/>
<path d="M7 0C3.13485 0 0 3.13485 0 7C0 10.8651 3.13485 14 7 14C10.8651 14 14 10.8651 14 7C14 3.13485 10.8651 0 7 0ZM11.2312 4.74256H11.2224V7.81436H9.47461V6.23643L8.65849 7.10683C8.89842 7.58144 9.03327 8.11559 9.03327 8.68301C9.03327 10.6165 7.46585 12.1856 5.5324 12.1856C3.59895 12.1856 2.03152 10.6182 2.03152 8.68301C2.03152 6.74781 3.59895 5.18038 5.5324 5.18038C6.16462 5.18038 6.76007 5.34851 7.27145 5.64273L8.11734 4.74256H6.40981V2.9965H11.2312V4.74256Z" fill="#0091FF"/>
<path d="M5.5289 6.93872C4.56392 6.93872 3.78284 7.72331 3.78284 8.69003C3.78284 9.65676 4.56392 10.4413 5.5289 10.4413C6.49387 10.4413 7.27496 9.65676 7.27496 8.69003C7.27496 7.72331 6.49212 6.93872 5.5289 6.93872Z" fill="#0091FF"/>
</svg>
