<svg width="31" height="31" viewBox="0 0 31 31" fill="none" xmlns="http://www.w3.org/2000/svg">
<path d="M3.22916 6.13574C3.22916 5.60063 3.66316 5.16663 4.19828 5.16663H26.8024C27.3368 5.16663 27.7708 5.60063 27.7708 6.13574V22.9274C27.7708 23.4618 27.3368 23.8958 26.8017 23.8958H14.5966L9.87866 26.8445C9.73204 26.9362 9.56353 26.987 9.39063 26.9916C9.21773 26.9962 9.04675 26.9544 8.89548 26.8706C8.7442 26.7867 8.61814 26.6639 8.53041 26.5148C8.44267 26.3658 8.39645 26.1959 8.39656 26.023V23.8958H4.19754C4.07031 23.8958 3.94432 23.8707 3.82678 23.822C3.70925 23.7733 3.60246 23.7019 3.51253 23.6119C3.4226 23.5219 3.35128 23.4151 3.30266 23.2975C3.25404 23.1799 3.22906 23.0539 3.22916 22.9267V6.13574ZM11.2028 11.4958H9.7303V15.0143H9.67863L7.27613 11.4958H6.00661V17.6021H7.48206V14.0777H7.52044L9.95099 17.6021H11.2028V11.4958ZM11.8789 11.4958V17.6021H16.1362V16.4034H13.3543V15.1486H15.9185V13.9463H13.3543V12.6952H16.137V11.4965H11.8782L11.8789 11.4958ZM16.4957 11.4958L18.273 17.6021H19.6916L20.7921 13.899H20.8401L21.9399 17.6021H23.3622L25.1366 11.4958H23.5083L22.5842 15.5059H22.5333L21.4808 11.4958H20.1515L19.0989 15.4963H19.048L18.1269 11.4958H16.4957Z" fill="#FF4275"/>
</svg>
