<svg width="28" height="27" viewBox="0 0 28 27" fill="none" xmlns="http://www.w3.org/2000/svg">
<path d="M10.1592 23.7515C12.5674 25.4343 15.7705 25.4342 18.1787 23.7515L23.5801 19.9771C26.1291 18.1955 27.1973 14.9459 26.2021 11.9995L24.2354 6.1792C23.2744 3.33449 20.6062 1.41943 17.6035 1.41943H10.7344C7.73191 1.41962 5.06347 3.33463 4.10254 6.1792L2.13672 11.9995C1.1415 14.9459 2.20969 18.1955 4.75879 19.9771L10.1592 23.7515Z" stroke="#F5FFFF" stroke-width="2"/>
<g clip-path="url(#clip0_67_759)">
<path d="M15.4037 8.99753C15.9783 8.99753 16.4549 9.44237 16.4944 10.0156L18.1911 17.2858C18.2011 17.4307 18.1821 17.5762 18.1352 17.7138C18.0883 17.8513 18.0145 17.9781 17.918 18.0867L14.376 21.8839C14.2758 21.9967 14.1031 22.007 13.9902 21.9068C13.9814 21.8989 13.9731 21.8905 13.9653 21.8816L10.4925 18.0802C10.3051 17.8644 10.2096 17.5838 10.2265 17.2985L11.8536 10.0261C11.8878 9.44843 12.3663 8.99753 12.9449 8.99753H15.4037ZM12.712 13.7059C12.3892 13.6534 12.0848 13.8696 12.0272 14.1903L12.0255 14.2L11.7901 15.6448C11.7351 15.9827 11.959 16.3031 12.2952 16.3675C12.3007 16.3685 12.3062 16.3695 12.3116 16.3704C12.6344 16.423 12.9388 16.2067 12.9964 15.8861L12.9981 15.8763L13.2335 14.4316C13.2885 14.0936 13.0646 13.7733 12.7284 13.7088C12.7229 13.7078 12.7174 13.7068 12.712 13.7059ZM13.1884 11.2758C12.8606 11.201 12.5342 11.4034 12.4544 11.7287L12.4521 11.7386L12.3505 12.1839C12.275 12.515 12.4822 12.8447 12.8133 12.9202C13.1411 12.995 13.4675 12.7927 13.5473 12.4673L13.5496 12.4574L13.6512 12.0121C13.7267 11.681 13.5195 11.3514 13.1884 11.2758H13.1884ZM16.3116 4.62451C16.7644 4.62451 17.1315 4.99161 17.1315 5.44445C17.1315 5.53258 17.1173 5.62013 17.0894 5.70374L16.2011 7.34362C16.0896 7.67843 15.7762 7.90428 15.4233 7.90428H12.9155C12.5626 7.90428 12.2493 7.67845 12.1377 7.34362L11.2494 5.70374C11.1062 5.27413 11.3384 4.80978 11.768 4.66658C11.8516 4.63872 11.9391 4.62451 12.0272 4.62451H16.3116Z" fill="#F5FFFF"/>
</g>
<defs>
<clipPath id="clip0_67_759">
<rect width="17.4921" height="17.4921" fill="white" transform="translate(5.42334 4.62451)"/>
</clipPath>
</defs>
</svg>
