<svg width="120" height="44" viewBox="0 0 120 44" fill="none" xmlns="http://www.w3.org/2000/svg">
<path opacity="0.9" d="M38.6 26.48H29.72V15.64H38.6V26.48ZM21 29.7L21.64 29.58V17.5H21V15.2H29.22V17.5H28.58V33H26.28V31.12L21 32.14V29.7ZM26.28 28.68V26.64H23.94V29.14L26.28 28.68ZM26.28 24.34V22.08H23.94V24.34H26.28ZM26.28 19.78V17.5H23.94V19.78H26.28ZM30.28 28.28H32.82L31.58 33H29.04L30.28 28.28ZM36.26 23.88V18.24H32.06V23.88H36.26ZM38.04 28.28L39.28 33H36.74L35.5 28.28H38.04ZM46.16 33C47.0133 31.3733 47.6533 29.78 48.08 28.22C48.52 26.6467 48.7733 25.0133 48.84 23.32H47.78V20.8H50.86L53.18 17.72H47.58V15.2H58.28L54.06 20.8H58.86V33H55.04V30.5H56.36V23.32H55.26C55.2333 25.0933 55.0733 26.76 54.78 28.32C54.5 29.8667 54.0333 31.4267 53.38 33H50.6C51.32 31.3733 51.8533 29.78 52.2 28.22C52.56 26.6467 52.7733 25.0133 52.84 23.32H51.3C51.2467 25.1067 51.04 26.7733 50.68 28.32C50.3333 29.8667 49.76 31.4267 48.96 33H46.16ZM40.98 28.36L42.84 28V21.48H41.02V18.88H42.84V15H45.4V18.88H47.06V21.48H45.4V27.5L47.14 27.16V29.94L40.98 31.14V28.36ZM78.12 33H75.58V22.48H67.86V20.08H78.14L78.12 33ZM61 17.52C62.2667 16.96 63.1867 16.1533 63.76 15.1H69.94V17.36C71.0467 16.8133 71.86 16.06 72.38 15.1H79V17.5H76.4L77.16 19.44H74.46L73.72 17.54C73.2133 18.1667 72.6067 18.7067 71.9 19.16C71.2067 19.6 70.4467 19.9 69.62 20.06V17.52L69.66 17.5H67.76L68.52 19.44H65.82L65.08 17.56C64.5733 18.1867 63.9667 18.72 63.26 19.16C62.5667 19.6 61.8133 19.9 61 20.06V17.52ZM64.42 23.64V33H61.88L61.86 23.64H64.42ZM65.46 19.64L66.68 22.76H64.02L62.8 19.64H65.46ZM66.06 23.62L73.94 23.68V31.98H66.06V23.62ZM71.48 30.04V28.76H68.52V30.04H71.48ZM71.48 26.9V25.62H68.52V26.9H71.48ZM80.6 33C81.3067 31.4133 81.8 29.8733 82.08 28.38C82.36 26.8733 82.5 25.1533 82.5 23.22V15.62H99V18.2H85.08V23.22C85.08 25.06 84.96 26.7733 84.72 28.36C84.4933 29.9333 84.1133 31.48 83.58 33H80.6ZM85.38 30.44C86.6067 29.9467 87.5133 29.2133 88.1 28.24C88.7 27.2667 89 25.9667 89 24.34V23.92H85.86V21.36H89V18.8H91.56V21.36H98.68V33H93.42V30.44H96.12V23.92H91.56V24.42C91.56 26.5933 91.0333 28.44 89.98 29.96C88.94 31.48 87.4067 32.56 85.38 33.2V30.44Z" fill="white"/>
</svg>
