<svg width="16" height="16" viewBox="0 0 16 16" fill="none" xmlns="http://www.w3.org/2000/svg">
<path d="M13.1239 4.46426C13.206 4.38229 13.2983 4.28981 13.3583 4.18421C13.8077 3.62629 13.8614 2.78179 13.4843 2.1689C13.1045 1.55156 12.5414 1.23853 11.8108 1.23853H2.76953C2.59433 1.23853 2.41328 1.23853 2.25562 1.28824C1.86959 1.38162 1.51642 1.60978 1.26047 1.93131C0.999748 2.25867 0.856201 2.66335 0.856201 3.07076C0.856201 3.59943 1.05765 4.06796 1.42365 4.39068C2.58623 5.51337 3.74694 6.67362 4.87006 7.79682V11.5039L4.872 11.5351C4.93304 12.0232 5.30384 12.2898 5.75265 12.0971L5.76047 12.0934C6.00329 11.9721 6.1425 11.7277 6.1425 11.4228V7.61171C6.1425 7.35446 6.06322 7.14468 5.90678 6.98824C5.34578 6.42717 4.79303 5.84412 4.25858 5.28018C3.70754 4.69878 3.1377 4.09759 2.54212 3.50201L2.51295 3.47254L2.47779 3.4552C2.46951 3.44951 2.45123 3.42567 2.43736 3.40745C2.42212 3.38771 2.40728 3.36904 2.39169 3.35201C2.28884 3.22024 2.26715 3.10826 2.31517 2.95715C2.39865 2.76821 2.56606 2.55138 2.76945 2.55138H11.8919C12.0029 2.55138 12.11 2.61138 12.1933 2.72043C12.3014 2.86196 12.3416 3.04909 12.2972 3.21245C12.2745 3.30282 12.2368 3.34376 12.1228 3.45792C10.8667 4.67345 9.66683 5.87321 8.39656 7.14342L8.38981 7.15024C8.26111 7.27879 8.11344 7.46592 8.11344 7.77379V14.1799C8.11344 14.2587 8.11344 14.4806 8.27565 14.6582C8.27565 14.6582 8.32492 14.7694 8.53733 14.8502C8.79983 14.9499 9.05625 14.8363 9.05625 14.8363L9.12322 14.7862C9.38587 14.5891 9.38587 14.2822 9.38587 14.0987V8.0401C10.014 7.41349 10.6649 6.80396 11.2947 6.21417C11.9361 5.61373 12.5418 5.04642 13.1239 4.46426H13.1239ZM14.5273 12.6718H11.081C10.7209 12.6718 10.5057 12.9644 10.5057 13.2473V13.4096C10.5057 13.7698 10.7981 13.9849 11.081 13.9849H14.5273C14.8875 13.9849 15.1027 13.6924 15.1027 13.4096V13.2473C15.1027 12.9031 14.8715 12.6718 14.5273 12.6718V12.6718ZM14.5273 10.6042H11.081C10.7209 10.6042 10.5057 10.8968 10.5057 11.1797V11.3011C10.5057 11.6614 10.7981 11.8767 11.081 11.8767H14.5273C14.8875 11.8767 15.1027 11.5841 15.1027 11.3011V11.1797C15.1027 10.8968 14.8875 10.6042 14.5273 10.6042ZM14.5273 8.61754H11.081C10.7209 8.61754 10.5057 8.9101 10.5057 9.19301V9.2741C10.5057 9.63415 10.7981 9.84942 11.081 9.84942H14.5273C14.8875 9.84942 15.1027 9.55692 15.1027 9.2741V9.19301C15.1027 8.84879 14.8715 8.61754 14.5273 8.61754Z" fill="#C8CACC"/>
</svg>
