<svg width="28" height="28" viewBox="0 0 28 28" fill="none" xmlns="http://www.w3.org/2000/svg">
<path d="M25.7249 23.8C25.7249 23.45 25.5499 23.1 25.5499 22.925C24.4999 18.55 20.9999 15.225 16.6249 14.175C19.4249 13.125 21.3499 10.5 21.3499 7.35C21.3499 3.325 18.0249 0 13.9999 0C9.9749 0 6.6499 3.325 6.6499 7.35C6.6499 10.5 8.7499 13.125 11.5499 14.175H11.3749C6.9999 15.05 3.4999 18.55 2.4499 22.75C2.2749 23.1 2.2749 23.275 2.2749 23.625V23.975C2.2749 26.075 4.0249 28 6.2999 28H21.8749C23.9749 28 25.8999 26.25 25.8999 23.975C25.7249 23.975 25.7249 23.8 25.7249 23.8ZM13.9999 25.725L11.5499 23.45L13.4749 19.075C12.9499 18.55 12.4249 17.325 12.4249 17.325C12.9499 16.8 13.4749 16.625 13.9999 16.625C14.5249 16.625 15.0499 16.8 15.5749 17.325C15.5749 17.325 15.2249 18.375 14.5249 19.075L16.4499 23.45L13.9999 25.725Z" fill="url(#paint0_linear_7_208)"/>
<defs>
<linearGradient id="paint0_linear_7_208" x1="14.0874" y1="0" x2="14.0874" y2="28" gradientUnits="userSpaceOnUse">
<stop stop-color="#67DCDB"/>
<stop offset="1" stop-color="#19B8B7"/>
</linearGradient>
</defs>
</svg>
