<svg width="30" height="30" viewBox="0 0 30 30" fill="none" xmlns="http://www.w3.org/2000/svg">
<path d="M17.355 23.01C17.355 20.43 19.455 18.345 22.02 18.345C23.385 18.345 24.615 18.93 25.47 19.875C25.935 18.645 26.205 17.295 26.205 15.9C26.205 10.11 21.81 5.34002 16.17 4.75502V4.20002C16.17 3.48002 15.585 2.89502 14.865 2.89502H14.7C13.98 2.89502 13.395 3.48002 13.395 4.20002V4.78502C7.96503 5.56502 3.78003 10.245 3.78003 15.885C3.78003 22.065 8.80503 27.105 15 27.105C16.35 27.105 17.64 26.865 18.84 26.43C17.925 25.575 17.355 24.36 17.355 23.01ZM20.265 16.575H15.015C14.61 16.575 14.265 16.245 14.265 15.825V10.215C14.265 9.81002 14.595 9.46502 15.015 9.46502C15.42 9.46502 15.765 9.79502 15.765 10.215V15.09H20.265C20.67 15.09 21.015 15.42 21.015 15.84C21.015 16.245 20.685 16.575 20.265 16.575Z" fill="url(#paint0_linear_8_217)"/>
<path d="M22.0351 19.095C19.8751 19.095 18.1201 20.85 18.1201 23.01C18.1201 25.17 19.8751 26.925 22.0351 26.925C24.1951 26.925 25.9501 25.17 25.9501 23.01C25.9501 20.85 24.1951 19.095 22.0351 19.095ZM23.3401 23.505C23.5651 23.505 23.7601 23.7 23.7601 23.925C23.7601 24.15 23.5651 24.345 23.3401 24.345H22.4701V25.155C22.4701 25.38 22.2751 25.575 22.0501 25.575C21.8251 25.575 21.6301 25.38 21.6301 25.155V24.345H20.6851C20.4601 24.345 20.2651 24.15 20.2651 23.925C20.2651 23.7 20.4601 23.505 20.6851 23.505H21.6301V23.04H20.7151C20.4901 23.04 20.2951 22.845 20.2951 22.62C20.2951 22.395 20.4901 22.2 20.7151 22.2H21.3001L20.6551 21.555C20.4901 21.39 20.4901 21.12 20.6551 20.955C20.8201 20.79 21.0901 20.79 21.2551 20.955L22.0501 21.75L22.8451 20.955C23.0101 20.79 23.2801 20.79 23.4451 20.955C23.6101 21.12 23.6101 21.39 23.4451 21.555L22.8001 22.2H23.3851C23.6101 22.2 23.8051 22.395 23.8051 22.62C23.8051 22.845 23.6101 23.04 23.3851 23.04H22.4701V23.505H23.3401Z" fill="url(#paint1_linear_8_217)"/>
<defs>
<linearGradient id="paint0_linear_8_217" x1="14.9925" y1="2.89502" x2="14.9925" y2="27.105" gradientUnits="userSpaceOnUse">
<stop stop-color="#FE9B5C"/>
<stop offset="1" stop-color="#FE694F"/>
</linearGradient>
<linearGradient id="paint1_linear_8_217" x1="22.0351" y1="19.095" x2="22.0351" y2="26.925" gradientUnits="userSpaceOnUse">
<stop stop-color="#FE9B5C"/>
<stop offset="1" stop-color="#FE694F"/>
</linearGradient>
</defs>
</svg>
