<svg width="32" height="32" viewBox="0 0 32 32" fill="none" xmlns="http://www.w3.org/2000/svg">
<path d="M17.1959 3.62839C17.0754 3.5527 16.9375 3.50894 16.7954 3.50123C16.6532 3.49352 16.5115 3.52212 16.3834 3.58433L5.28967 8.99058C5.14729 9.0598 5.02732 9.16777 4.94352 9.30209C4.85972 9.43641 4.8155 9.59164 4.81592 9.74995V26.4728H17.5897V4.3437C17.5895 4.20097 17.5534 4.06058 17.4845 3.93554C17.4157 3.8105 17.3164 3.70486 17.1959 3.62839ZM13.4509 21.4062H8.8903C8.66631 21.4062 8.4515 21.3172 8.29312 21.1588C8.13474 21.0005 8.04576 20.7857 8.04576 20.5617C8.04576 20.3377 8.13474 20.1229 8.29312 19.9645C8.4515 19.8061 8.66631 19.7171 8.8903 19.7171H13.4509C13.6749 19.7171 13.8897 19.8061 14.0481 19.9645C14.2065 20.1229 14.2955 20.3377 14.2955 20.5617C14.2955 20.7857 14.2065 21.0005 14.0481 21.1588C13.8897 21.3172 13.6749 21.4062 13.4509 21.4062ZM13.4509 18.0278H8.8903C8.66631 18.0278 8.4515 17.9388 8.29312 17.7804C8.13474 17.622 8.04576 17.4072 8.04576 17.1832C8.04576 16.9592 8.13474 16.7444 8.29312 16.5861C8.4515 16.4277 8.66631 16.3387 8.8903 16.3387H13.4509C13.6749 16.3387 13.8897 16.4277 14.0481 16.5861C14.2065 16.7444 14.2955 16.9592 14.2955 17.1832C14.2955 17.4072 14.2065 17.622 14.0481 17.7804C13.8897 17.9388 13.6749 18.0278 13.4509 18.0278ZM13.4509 14.6493H8.8903C8.66631 14.6493 8.4515 14.5603 8.29312 14.402C8.13474 14.2436 8.04576 14.0288 8.04576 13.8048C8.04576 13.5808 8.13474 13.366 8.29312 13.2076C8.4515 13.0492 8.66631 12.9603 8.8903 12.9603H13.4509C13.6749 12.9603 13.8897 13.0492 14.0481 13.2076C14.2065 13.366 14.2955 13.5808 14.2955 13.8048C14.2955 14.0288 14.2065 14.2436 14.0481 14.402C13.8897 14.5603 13.6749 14.6493 13.4509 14.6493ZM26.7753 11.3259V26.4728H19.174V21.2365H22.0456C22.2696 21.2365 22.4845 21.1475 22.6429 20.9891C22.8013 20.8307 22.8903 20.6159 22.8903 20.3918C22.8903 20.1678 22.8013 19.953 22.6429 19.7945C22.4845 19.6361 22.2696 19.5471 22.0456 19.5471H19.174V17.8596H22.0456C22.2696 17.8596 22.4845 17.7706 22.6429 17.6122C22.8013 17.4538 22.8903 17.239 22.8903 17.015C22.8903 16.7909 22.8013 16.5761 22.6429 16.4177C22.4845 16.2593 22.2696 16.1703 22.0456 16.1703H19.174V9.05058L26.0312 10.5065C26.4687 10.5978 26.7753 10.9375 26.7753 11.3259Z" fill="url(#paint0_linear_7_213)"/>
<path d="M28.8026 27.6561C28.8026 27.9698 28.678 28.2705 28.4562 28.4923C28.2345 28.714 27.9337 28.8386 27.6201 28.8386H3.97132C3.6577 28.8386 3.35693 28.714 3.13516 28.4923C2.9134 28.2705 2.78882 27.9698 2.78882 27.6561C2.78882 27.3425 2.9134 27.0417 3.13516 26.82C3.35693 26.5982 3.6577 26.4736 3.97132 26.4736H27.6201C27.9337 26.4736 28.2345 26.5982 28.4562 26.82C28.678 27.0417 28.8026 27.3425 28.8026 27.6561Z" fill="url(#paint1_linear_7_213)"/>
<defs>
<linearGradient id="paint0_linear_7_213" x1="15.7956" y1="3.5" x2="15.7956" y2="26.4728" gradientUnits="userSpaceOnUse">
<stop stop-color="#60C2F2"/>
<stop offset="1" stop-color="#499ED1"/>
</linearGradient>
<linearGradient id="paint1_linear_7_213" x1="15.7957" y1="26.4736" x2="15.7957" y2="28.8386" gradientUnits="userSpaceOnUse">
<stop stop-color="#60C2F2"/>
<stop offset="1" stop-color="#499ED1"/>
</linearGradient>
</defs>
</svg>
