<svg width="30" height="30" viewBox="0 0 30 30" fill="none" xmlns="http://www.w3.org/2000/svg">
<path d="M2.5 16.25H11.25V18.7562L11.2587 18.8925C11.3275 19.4288 11.7962 19.8625 12.4037 19.9725L12.5587 19.9937L12.7087 20H17.2912L17.4512 19.9925C18.08 19.9337 18.5888 19.535 18.7188 19.015L18.7425 18.8825L18.75 18.7562V16.25H27.5V23.75C27.5 24.7446 27.1049 25.6984 26.4016 26.4016C25.6984 27.1049 24.7446 27.5 23.75 27.5H6.25C5.25544 27.5 4.30161 27.1049 3.59835 26.4016C2.89509 25.6984 2.5 24.7446 2.5 23.75V16.25ZM16.6662 16.25V18.0588L13.3337 18.0525V16.25H16.6662ZM17.5 4.375C18.4946 4.375 19.4484 4.77009 20.1516 5.47335C20.8549 6.17661 21.25 7.13044 21.25 8.125H23.75C24.7446 8.125 25.6984 8.52009 26.4016 9.22335C27.1049 9.92661 27.5 10.8804 27.5 11.875V14.375H2.5V11.875C2.5 10.8804 2.89509 9.92661 3.59835 9.22335C4.30161 8.52009 5.25544 8.125 6.25 8.125H8.75C8.74995 7.16849 9.11541 6.24811 9.7716 5.55217C10.4278 4.85624 11.3251 4.43737 12.28 4.38125L12.5 4.375H17.5ZM17.5 6.25H12.5C12.1938 6.25004 11.8983 6.36244 11.6695 6.56589C11.4407 6.76934 11.2946 7.04969 11.2587 7.35375L11.25 7.5H18.75C18.75 7.19383 18.6376 6.89833 18.4341 6.66953C18.2307 6.44074 17.9503 6.29457 17.6462 6.25875L17.5 6.25Z" fill="url(#paint0_linear_7_196)"/>
<defs>
<linearGradient id="paint0_linear_7_196" x1="15" y1="4.375" x2="15" y2="27.5" gradientUnits="userSpaceOnUse">
<stop stop-color="#6794E7"/>
<stop offset="1" stop-color="#5676F7"/>
</linearGradient>
</defs>
</svg>
