<svg width="26" height="26" viewBox="0 0 26 26" fill="none" xmlns="http://www.w3.org/2000/svg">
<path d="M24.9152 7.41292C24.2498 5.9511 23.2998 4.63654 22.1206 3.54603C20.9342 2.43144 19.5491 1.54962 18.0371 0.946435C14.7979 -0.315478 11.2029 -0.315478 7.96369 0.946435C6.43636 1.5448 5.0361 2.42685 3.83684 3.54603C2.67434 4.64148 1.73941 5.95554 1.0856 7.41292C0.387883 8.90198 0.0184805 10.5237 0.00244141 12.168C0.0202003 15.1604 1.18295 18.0324 3.25193 20.1942L3.83684 25.1876C3.86327 25.4107 3.97036 25.6165 4.13794 25.7661C4.30553 25.9157 4.52204 25.9989 4.7467 26C4.9061 26.0003 5.06285 25.9593 5.20162 25.8809L8.97103 23.7145C11.9568 24.624 15.1617 24.5019 18.0696 23.3679C19.5969 22.7696 20.9972 21.8875 22.1965 20.7683C23.3438 19.6795 24.2674 18.3769 24.9152 16.9339C25.5935 15.4385 25.9443 13.8155 25.9443 12.1734C25.9443 10.5314 25.5935 8.90832 24.9152 7.41292ZM7.36795 13.587C7.09159 13.587 6.82144 13.505 6.59166 13.3515C6.36188 13.1979 6.18279 12.9797 6.07703 12.7244C5.97127 12.4691 5.9436 12.1881 5.99752 11.9171C6.05143 11.646 6.18451 11.3971 6.37992 11.2016C6.57534 11.0062 6.82431 10.8732 7.09535 10.8192C7.3664 10.7653 7.64735 10.793 7.90267 10.8988C8.15799 11.0045 8.37621 11.1836 8.52975 11.4134C8.68328 11.6432 8.76523 11.9133 8.76523 12.1897C8.76541 12.5529 8.62416 12.9019 8.37141 13.1627C8.11867 13.4235 7.7743 13.5757 7.41128 13.587H7.36795ZM12.9571 13.587C12.6807 13.587 12.4106 13.505 12.1808 13.3515C11.951 13.1979 11.7719 12.9797 11.6662 12.7244C11.5604 12.4691 11.5327 12.1881 11.5866 11.9171C11.6406 11.646 11.7736 11.3971 11.969 11.2016C12.1645 11.0062 12.4134 10.8732 12.6845 10.8192C12.9555 10.7653 13.2365 10.793 13.4918 10.8988C13.7471 11.0045 13.9653 11.1836 14.1189 11.4134C14.2724 11.6432 14.3544 11.9133 14.3544 12.1897C14.3545 12.5529 14.2133 12.9019 13.9605 13.1627C13.7078 13.4235 13.3634 13.5757 13.0004 13.587H12.9571ZM18.5462 13.587C18.2698 13.587 17.9997 13.505 17.7699 13.3515C17.5401 13.1979 17.361 12.9797 17.2553 12.7244C17.1495 12.4691 17.1218 12.1881 17.1758 11.9171C17.2297 11.646 17.3628 11.3971 17.5582 11.2016C17.7536 11.0062 18.0026 10.8732 18.2736 10.8192C18.5446 10.7653 18.8256 10.793 19.0809 10.8988C19.3362 11.0045 19.5545 11.1836 19.708 11.4134C19.8615 11.6432 19.9435 11.9133 19.9435 12.1897C19.9436 12.5547 19.8008 12.9053 19.5458 13.1664C19.2907 13.4275 18.9436 13.5785 18.5787 13.587H18.5462Z" fill="#16B3B2"/>
</svg>
