<svg width="26" height="26" viewBox="0 0 26 26" fill="none" xmlns="http://www.w3.org/2000/svg">
<path d="M17.9627 9.94978C17.1421 6.27078 13.4696 3.49365 9.0675 3.49365C4.06087 3.49365 0 7.08328 0 11.5114C0 13.6467 0.944125 15.5853 2.483 17.0202C2.9575 17.4687 2.97862 18.2178 2.5285 18.6907L1.8005 19.456C1.8005 19.456 8.6905 19.5308 9.06912 19.5308C10.8241 19.5308 12.4621 19.0888 13.8499 18.325C16.4239 16.9113 18.1366 14.3877 18.1366 11.5098C18.135 10.9768 18.0765 10.4552 17.9627 9.94978ZM4.72225 12.9349C3.93412 12.9349 3.29875 12.2995 3.29875 11.5114C3.29875 10.7249 3.93412 10.0879 4.72225 10.0879C5.50875 10.0879 6.14575 10.7249 6.14575 11.5114C6.14575 12.2995 5.50875 12.9349 4.72225 12.9349ZM9.0675 12.9349C8.281 12.9349 7.644 12.2995 7.644 11.5114C7.644 10.7249 8.281 10.0879 9.0675 10.0879C9.854 10.0879 10.491 10.7249 10.491 11.5114C10.491 12.2995 9.854 12.9349 9.0675 12.9349ZM13.4647 12.9333C13.4469 12.9349 13.4306 12.9349 13.4127 12.9349C12.6262 12.9349 11.9892 12.2995 11.9892 11.5114C11.9892 10.7249 12.6262 10.0879 13.4127 10.0879C14.1359 10.0879 14.7322 10.6258 14.8232 11.3229C14.8314 11.3863 14.8362 11.448 14.8362 11.513C14.8375 11.8817 14.6949 12.2363 14.4388 12.5016C14.1827 12.7668 13.8332 12.9216 13.4647 12.9333Z" fill="#418CFF"/>
<path d="M24.2758 20.5464L24.773 21.068H20.7284C20.6796 21.068 20.6309 21.0713 20.5821 21.0761C20.3319 21.1038 20.0784 21.12 19.82 21.12C17.6571 21.12 15.7526 20.1369 14.6509 18.6484C17.2249 17.2346 18.9376 14.711 18.9376 11.8331C18.9376 11.2985 18.8775 10.7769 18.7638 10.2715C19.1066 10.2179 19.4609 10.1919 19.82 10.1919C23.2325 10.1919 25.9983 12.6375 25.9983 15.6551C25.9983 17.1095 25.3548 18.4306 24.3066 19.4089C23.9849 19.7128 23.9719 20.223 24.2758 20.5464Z" fill="#418CFF"/>
</svg>
