<svg width="14" height="14" viewBox="0 0 14 14" fill="none" xmlns="http://www.w3.org/2000/svg">
<path d="M13.8616 4.52592L7.99413 1.13399C7.84033 1.04518 7.66912 1 7.49936 1C7.32961 1 7.1584 1.04518 7.0046 1.13399L1.13711 4.52592C0.954296 4.63187 0.954296 4.91388 1.13711 5.01983L3.32654 6.28499V10.3796C3.32654 11.2724 4.00992 12 4.85145 12H10.1545C10.9946 12 11.6794 11.2739 11.6794 10.3796V6.28187L12.608 5.74433V8.96799C12.608 9.24377 12.8155 9.46657 13.0723 9.46657C13.3291 9.46657 13.5366 9.24377 13.5366 8.96799V5.20836L13.8631 5.01983C14.0459 4.91388 14.0459 4.63187 13.8616 4.52592ZM10.7494 10.3796C10.7494 10.7224 10.4824 11.0028 10.1531 11.0028H4.85C4.52064 11.0028 4.25367 10.7239 4.25367 10.3796V6.82252L7.0046 8.41176C7.1584 8.50057 7.32961 8.54575 7.49936 8.54575C7.66912 8.54575 7.84033 8.50057 7.99413 8.41176L10.7494 6.81941V10.3796ZM7.5545 7.533C7.53709 7.54235 7.51968 7.54858 7.49936 7.54858C7.47905 7.54858 7.46164 7.54391 7.44423 7.533L2.66928 4.7721L7.44423 2.01275C7.46164 2.0034 7.47905 1.99717 7.49936 1.99717C7.51968 1.99717 7.53709 2.00184 7.5545 2.01275L12.3309 4.77365L7.5545 7.533ZM13.0926 9.96671H13.0491C12.8039 9.96671 12.6066 10.1802 12.6066 10.4419C12.6066 10.7177 12.8141 10.9405 13.0709 10.9405C13.3277 10.9405 13.5352 10.7177 13.5352 10.4419C13.5352 10.1802 13.3364 9.96671 13.0926 9.96671Z" fill="#86909C"/>
</svg>
