<svg width="14" height="14" viewBox="0 0 14 14" fill="none" xmlns="http://www.w3.org/2000/svg">
<path d="M3.09039 1.71299C5.33664 -0.53877 8.97851 -0.53877 11.2245 1.71299C13.4709 3.9648 12.9479 7.61581 10.7016 9.86756L7.15757 13.9447L3.61342 9.86756C1.36698 7.61581 0.844167 3.96479 3.09037 1.71299H3.09039ZM7.15753 12.4621L9.96238 9.12637C11.8001 7.28402 12.323 4.29664 10.4853 2.45435C8.64731 0.611992 5.6677 0.611992 3.82987 2.45435C1.9921 4.29666 2.51503 7.28398 4.35286 9.12637L7.15753 12.4621ZM7.15753 2.64507C5.71357 2.64507 4.54303 3.81865 4.54303 5.2661C4.54303 6.71352 5.71357 7.88708 7.15753 7.88708C8.60171 7.88708 9.77198 6.7135 9.77198 5.2661C9.77198 3.81869 8.60173 2.64507 7.15753 2.64507ZM7.15753 6.83857C6.29115 6.83857 5.58883 6.13471 5.58883 5.26609C5.58883 4.39747 6.29111 3.69356 7.15753 3.69356C8.02394 3.69356 8.72636 4.39749 8.72636 5.26609C8.72636 6.13469 8.02394 6.83857 7.15753 6.83857Z" fill="#16B3B2"/>
</svg>
