<svg width="15" height="14" viewBox="0 0 15 14" fill="none" xmlns="http://www.w3.org/2000/svg">
<path d="M3.59039 1.71274C5.83664 -0.539014 9.47851 -0.539014 11.7245 1.71274C13.9709 3.96456 13.4479 7.61556 11.2016 9.86732L7.65757 13.9445L4.11342 9.86732C1.86698 7.61556 1.34417 3.96454 3.59037 1.71274H3.59039ZM7.65753 12.4619L10.4624 9.12613C12.3001 7.28377 12.823 4.2964 10.9853 2.4541C9.14731 0.611748 6.1677 0.611748 4.32987 2.4541C2.4921 4.29641 3.01503 7.28373 4.85286 9.12613L7.65753 12.4619ZM7.65753 2.64482C6.21357 2.64482 5.04303 3.8184 5.04303 5.26586C5.04303 6.71327 6.21357 7.88684 7.65753 7.88684C9.10171 7.88684 10.272 6.71326 10.272 5.26586C10.272 3.81844 9.10173 2.64482 7.65753 2.64482ZM7.65753 6.83833C6.79115 6.83833 6.08883 6.13446 6.08883 5.26585C6.08883 4.39723 6.79111 3.69332 7.65753 3.69332C8.52394 3.69332 9.22636 4.39724 9.22636 5.26585C9.22636 6.13445 8.52394 6.83833 7.65753 6.83833Z" fill="#86909C"/>
</svg>
