<svg width="14" height="14" viewBox="0 0 14 14" fill="none" xmlns="http://www.w3.org/2000/svg">
<g clip-path="url(#clip0_28_308)">
<path d="M8.26875 9.51553H5.88437C5.3375 9.51553 5.14062 8.77178 5.14062 8.53115V6.9999C5.14062 6.75928 5.3375 6.5624 5.57812 6.5624C5.81875 6.5624 6.01562 6.75928 6.01562 6.9999V8.53115C6.01562 8.55303 6.0375 8.59678 6.0375 8.64053H8.09375C8.11562 8.59678 8.11562 8.55303 8.11562 8.50928V6.97803C8.11562 6.7374 8.3125 6.54053 8.55312 6.54053C8.79375 6.54053 8.99062 6.7374 8.99062 6.97803V8.50928C9.0125 8.79365 8.81562 9.51553 8.26875 9.51553Z" fill="#86909C"/>
<path d="M12.7531 13.4096H1.4C0.940625 13.4096 0.65625 12.8846 0.65625 12.5127V5.79707C0.65625 5.55645 0.853125 5.35957 1.09375 5.35957C1.33438 5.35957 1.53125 5.55645 1.53125 5.79707V12.5346H12.5781V5.81895C12.5781 5.57832 12.775 5.38145 13.0156 5.38145C13.2563 5.38145 13.4531 5.57832 13.4531 5.81895V12.5346C13.475 12.8846 13.2125 13.4096 12.7531 13.4096ZM8.85938 3.25957H5.29375C4.87813 3.25957 4.55 2.93145 4.55 2.51582V1.33457C4.55 0.918945 4.87813 0.59082 5.29375 0.59082H8.88125C9.29688 0.59082 9.625 0.918945 9.625 1.33457V2.5377C9.60312 2.93145 9.275 3.25957 8.85938 3.25957ZM5.425 2.38457H8.72813V1.46582H5.425V2.38457Z" fill="#86909C"/>
<path d="M11.55 7.13144H2.60308C1.42183 7.13144 0.371826 6.01582 0.371826 4.74707V3.30332C0.371826 3.19395 0.415576 2.66895 1.11558 2.66895H13.0593C13.475 2.66895 13.8031 2.9752 13.8031 3.36895V4.74707C13.7812 6.01582 12.7312 7.13144 11.55 7.13144ZM1.24683 3.56582V4.76895C1.24683 5.55645 1.8812 6.27832 2.60308 6.27832H11.55C12.25 6.27832 12.9062 5.55645 12.9062 4.76895V3.56582H1.24683Z" fill="#86909C"/>
</g>
<defs>
<clipPath id="clip0_28_308">
<rect width="14" height="14" fill="white"/>
</clipPath>
</defs>
</svg>
