<svg width="24" height="24" viewBox="0 0 24 24" fill="none" xmlns="http://www.w3.org/2000/svg">
<g clip-path="url(#clip0_32_434)">
<path d="M9.14997 7.64764C10.0781 6.71951 10.1554 5.29686 9.32106 4.28905L6.7195 0.996076C5.88513 -0.103142 4.27497 -0.274236 3.19216 0.576545C3.11481 0.653889 3.02106 0.653889 3.02106 0.747639L0.747625 3.02108C-1.43441 5.20311 1.67575 11.0976 7.30778 16.732C12.9398 22.3664 18.7429 25.3969 20.9226 23.2922L23.1961 21.0187C24.2015 20.0133 24.2015 18.4195 23.1961 17.4914L23.025 17.3203L19.7484 14.7187C18.7429 13.8844 17.3203 13.9617 16.3898 14.8898L14.9672 16.3125C13.4507 15.3844 12.1054 14.3789 10.9289 13.2023C9.75231 12.0258 8.74684 10.6805 7.81872 9.16405L9.14997 7.64764ZM7.97341 5.3742C8.22184 5.71405 8.22184 6.20858 7.89606 6.47342L6.03981 8.40701C5.77731 8.66951 5.71403 9.07264 5.86872 9.41248C6.86013 11.2383 8.11169 12.9094 9.56716 14.3789C11.0367 15.8484 12.7078 17.0859 14.5336 18.0773C14.8734 18.232 15.2765 18.1711 15.539 17.9062L17.4726 15.9726C17.8125 15.6328 18.2297 15.6328 18.5718 15.8953L21.8531 18.5883C21.8531 18.5883 21.9304 18.5883 21.9304 18.6656C22.2562 18.975 22.2703 19.4859 21.9609 19.8117L21.9304 19.8422L19.657 22.1156C18.5578 23.2148 13.3593 20.4281 8.39294 15.5555C3.44059 10.6664 0.747625 5.3742 1.84684 4.27498L4.19763 1.9242C4.53747 1.67576 5.12575 1.67576 5.37419 2.0953L7.97341 5.3742Z" fill="#686E8B"/>
</g>
<path d="M17.1492 10.5891C17.1492 11.1 17.4891 11.4235 17.9836 11.4235C18.4781 11.4235 18.818 11.0836 18.818 10.5891C18.8016 7.80474 16.5586 5.55942 13.7742 5.54536C13.2633 5.54536 12.9398 5.88521 12.9398 6.37974C12.9398 6.89067 13.2797 7.21411 13.7742 7.21411C15.6328 7.23052 17.1328 8.73052 17.1492 10.5891ZM20.5055 10.5891C20.5055 11.1 20.8453 11.4235 21.3398 11.4235C21.8344 11.4235 22.1742 11.0836 22.1742 10.5891C22.1742 5.96255 18.3844 2.18677 13.7719 2.18677C13.2609 2.18677 12.9375 2.52661 12.9375 3.02114C12.9375 3.53208 13.2773 3.85552 13.7719 3.85552C17.475 3.85786 20.5055 6.89067 20.5055 10.5891Z" fill="#C6C8D3"/>
<defs>
<clipPath id="clip0_32_434">
<rect width="24" height="24" fill="white"/>
</clipPath>
</defs>
</svg>
