<svg width="36" height="36" viewBox="0 0 36 36" fill="none" xmlns="http://www.w3.org/2000/svg">
<path d="M5.66377 16.5129C6.43018 17.2583 7.35479 17.6625 8.43408 17.6625H8.60283V10.0583H8.14229C9.02471 7.94536 10.3747 6.52505 12.1923 5.34731C14.0099 4.16958 16.0278 3.55083 18.2462 3.55083C20.4646 3.55083 22.4895 4.18013 24.3142 5.36138C26.1423 6.53911 27.4958 7.94536 28.3782 10.0583H28.0442V17.6063C29.3134 17.6063 30.0517 17.2336 30.8181 16.4848C31.5845 15.7395 31.9712 14.836 31.9712 13.7743C31.9712 13.0676 31.7919 12.4137 31.4263 11.8161C31.0642 11.2184 30.579 10.7508 29.9673 10.4168C29.1235 8.01919 27.6294 6.06099 25.4884 4.53872C23.3474 3.01646 20.9392 2.25708 18.2567 2.25708C15.5743 2.25708 13.1661 3.01294 11.0251 4.52466C8.88408 6.03638 7.39346 8.00161 6.54619 10.4168C5.91689 10.7508 5.42119 11.2184 5.05908 11.8161C4.69697 12.4137 4.51416 13.0676 4.51416 13.7743C4.51416 14.836 4.89736 15.7676 5.66377 16.5129Z" fill="url(#paint0_linear_68_1128)"/>
<path d="M18.2461 6.11719C15.9083 6.11719 13.9114 6.92578 12.252 8.54648C10.5926 10.1672 9.76294 12.1254 9.76294 14.4246C9.76294 16.7238 10.5926 18.682 12.252 20.3027C13.9114 21.9234 15.9153 22.732 18.2602 22.732C20.6051 22.732 22.6055 21.9234 24.2543 20.3027C25.9032 18.682 26.7293 16.7238 26.7293 14.4246C26.7293 12.1254 25.9032 10.1672 24.2543 8.54648C22.6055 6.92578 20.6051 6.11719 18.2461 6.11719Z" fill="url(#paint1_linear_68_1128)"/>
<path d="M31.6055 26.223C30.4172 24.4441 28.793 23.0449 26.7293 22.0254C25.5903 23.0449 24.293 23.8465 22.8411 24.4266C21.3891 25.0066 19.8563 25.2949 18.2461 25.2949C16.636 25.2949 15.1102 25.0102 13.6653 24.4406C12.2239 23.8711 10.9301 23.066 9.79106 22.0254C7.74849 23.066 6.14185 24.4687 4.97466 26.2371C3.80747 28.0055 3.22388 30.0656 3.22388 32.4246C13.595 34.1473 23.6708 34.2633 33.3879 32.4246C33.3879 30.0691 32.7938 28.002 31.6055 26.223Z" fill="url(#paint2_linear_68_1128)"/>
<defs>
<linearGradient id="paint0_linear_68_1128" x1="18.2427" y1="2.25708" x2="18.2427" y2="17.6625" gradientUnits="userSpaceOnUse">
<stop stop-color="#F9B06B"/>
<stop offset="1" stop-color="#E48831"/>
</linearGradient>
<linearGradient id="paint1_linear_68_1128" x1="18.2461" y1="6.11719" x2="18.2461" y2="22.732" gradientUnits="userSpaceOnUse">
<stop stop-color="#F9B06B"/>
<stop offset="1" stop-color="#E48831"/>
</linearGradient>
<linearGradient id="paint2_linear_68_1128" x1="18.3059" y1="22.0254" x2="18.3059" y2="33.7605" gradientUnits="userSpaceOnUse">
<stop stop-color="#F9B06B"/>
<stop offset="1" stop-color="#E48831"/>
</linearGradient>
</defs>
</svg>
