<svg width="36" height="36" viewBox="0 0 36 36" fill="none" xmlns="http://www.w3.org/2000/svg">
<path d="M33.0435 13.1203L26.8736 5.43867C26.2583 4.65469 25.2458 4.14844 24.2368 4.14844H11.788C10.779 4.14844 9.82629 4.59844 9.15129 5.43867L2.98488 13.1203C1.91965 14.4105 2.03215 16.316 3.15363 17.55L15.6587 30.7863L15.8275 30.9551C16.4427 31.5176 17.2864 31.8516 18.1267 31.8516H18.2392C19.1357 31.7953 19.9759 31.4578 20.5946 30.7863L32.8185 17.6062C33.9962 16.316 34.0525 14.4105 33.0435 13.1203ZM25.5974 16.1473L19.765 22.4859C18.8685 23.3824 17.4657 23.4387 16.5693 22.5984L16.4568 22.4859L10.4028 16.091C10.0091 15.641 10.0091 14.9133 10.4591 14.5195C10.9653 14.0695 11.6368 14.1258 12.0868 14.5758L18.088 20.9145L23.9204 14.6883C24.3704 14.2383 25.0419 14.182 25.5482 14.5758C25.9911 14.9695 25.9911 15.7008 25.5974 16.1473Z" fill="url(#paint0_linear_68_1116)"/>
<defs>
<linearGradient id="paint0_linear_68_1116" x1="18.0001" y1="4.14844" x2="18.0001" y2="31.8516" gradientUnits="userSpaceOnUse">
<stop stop-color="#F9B06B"/>
<stop offset="1" stop-color="#E48831"/>
</linearGradient>
</defs>
</svg>
