<svg width="36" height="36" viewBox="0 0 36 36" fill="none" xmlns="http://www.w3.org/2000/svg">
<g clip-path="url(#clip0_68_1133)">
<path d="M17.9737 30.3834C17.3533 30.3834 16.8493 30.8874 16.8493 31.5078V34.8755C16.8493 35.4959 17.3533 35.9999 17.9737 35.9999C18.5941 35.9999 19.0981 35.4959 19.0981 34.8755V31.5078C19.0981 30.8874 18.5941 30.3834 17.9737 30.3834ZM8.32651 26.1036L5.96654 28.4636C5.53165 28.8985 5.53165 29.6038 5.96654 30.0387C6.40143 30.4738 7.10672 30.4738 7.54161 30.0387L9.90184 27.6787C10.3367 27.2438 10.3367 26.5385 9.90184 26.1036C9.46143 25.6685 8.75615 25.6685 8.32651 26.1036ZM28.2997 26.7666C27.8595 26.3262 27.1487 26.3262 26.7086 26.7666C26.2684 27.2065 26.2684 27.9175 26.7086 28.3574L29.0898 30.7389C29.5302 31.1791 30.2408 31.1791 30.6809 30.7389C31.1213 30.2988 31.1213 29.588 30.6809 29.1479L28.2997 26.7666ZM34.8286 16.9018H31.4608C30.8402 16.9018 30.3364 17.4058 30.3364 18.0262C30.3364 18.6469 30.8402 19.1506 31.4608 19.1506H34.8286C35.449 19.1506 35.9527 18.6469 35.9527 18.0262C35.9474 17.4058 35.449 16.9018 34.8286 16.9018ZM17.9737 7.91232C12.3837 7.91232 7.85457 12.4415 7.85457 18.0315C7.85457 23.6215 12.3837 28.1509 17.9737 28.1509C23.5637 28.1509 28.0929 23.6215 28.0929 18.0315C28.0929 12.4415 23.5637 7.91232 17.9737 7.91232ZM4.49212 16.9018H1.12441C0.504 16.9018 0 17.4058 0 18.0262C0 18.6469 0.504 19.1506 1.12441 19.1506H4.49212C5.11253 19.1506 5.61626 18.6469 5.61626 18.0262C5.61626 17.4058 5.11253 16.9018 4.49212 16.9018ZM17.9737 5.66875C18.5941 5.66875 19.0981 5.16528 19.0981 4.54461V1.1769C19.0981 0.55649 18.5941 0.0524902 17.9737 0.0524902C17.3533 0.0524902 16.8493 0.55649 16.8493 1.1769V4.54461C16.8493 5.16528 17.3533 5.66875 17.9737 5.66875ZM28.7824 8.79287L31.1424 6.43264C31.5773 5.99775 31.5773 5.2922 31.1424 4.85757C30.7077 4.42268 30.0022 4.42268 29.5673 4.85757L27.2071 7.21754C26.7724 7.65269 26.7724 8.35772 27.2071 8.79287C27.6422 9.22776 28.3475 9.22776 28.7824 8.79287ZM7.64777 9.29135C8.08791 9.7315 8.79872 9.7315 9.23886 9.29135C9.67901 8.85121 9.67901 8.1404 9.23886 7.70026L6.85761 5.319C6.4172 4.87886 5.70666 4.87886 5.26651 5.319C4.8261 5.75915 4.8261 6.46995 5.26651 6.9101L7.64777 9.29135Z" fill="url(#paint0_linear_68_1133)"/>
</g>
<defs>
<linearGradient id="paint0_linear_68_1133" x1="17.9764" y1="0.0524902" x2="17.9764" y2="35.9999" gradientUnits="userSpaceOnUse">
<stop stop-color="#F9B06B"/>
<stop offset="1" stop-color="#E48831"/>
</linearGradient>
<clipPath id="clip0_68_1133">
<rect width="36" height="36" fill="white"/>
</clipPath>
</defs>
</svg>
