<svg width="17" height="16" viewBox="0 0 17 16" fill="none" xmlns="http://www.w3.org/2000/svg">
<path d="M8.092 1.16001L3.236 3.29601C2.844 3.46401 2.588 3.85601 2.588 4.28801V7.63201C2.58 9.64801 3.516 11.552 5.116 12.776L7.9 14.744C8.276 15.008 8.772 15.008 9.148 14.744L11.908 12.792C13.524 11.568 14.468 9.65601 14.46 7.63201V4.28001C14.46 3.84801 14.204 3.46401 13.812 3.28801L8.956 1.15201C8.676 1.03201 8.364 1.03201 8.092 1.16001ZM3.668 4.28001L8.524 2.14401L13.38 4.28001V7.62401C13.388 9.31201 12.604 10.896 11.26 11.92L8.516 13.856L5.756 11.904C4.428 10.888 3.652 9.30401 3.66 7.62401L3.668 4.28001Z" fill="white"/>
<path d="M11.228 5.60791L11.988 6.36791L8.47603 9.87991C8.26803 10.0879 7.92403 10.0879 7.71603 9.87991L5.55603 7.71991L6.31603 6.95991L8.10003 8.73591L11.228 5.60791Z" fill="white"/>
</svg>
