<svg width="15" height="16" viewBox="0 0 15 16" fill="none" xmlns="http://www.w3.org/2000/svg">
<path d="M12.6562 2.375H2.34375C1.05141 2.375 0 3.42641 0 4.71875V11.2812C0 12.5736 1.05141 13.625 2.34375 13.625H12.6562C13.9486 13.625 15 12.5736 15 11.2812V4.71875C15 3.42641 13.9486 2.375 12.6562 2.375ZM14.0625 11.2812C14.0625 12.0566 13.4316 12.6875 12.6562 12.6875H2.34375C1.56844 12.6875 0.9375 12.0566 0.9375 11.2812V4.71875C0.9375 3.94344 1.56844 3.3125 2.34375 3.3125H12.6562C13.4316 3.3125 14.0625 3.94344 14.0625 4.71875V11.2812Z" fill="white"/>
<path d="M5.625 5.1875H2.34375C2.085 5.1875 1.875 5.3975 1.875 5.65625C1.875 5.915 2.085 6.125 2.34375 6.125H5.625C5.88375 6.125 6.09375 5.915 6.09375 5.65625C6.09375 5.3975 5.88375 5.1875 5.625 5.1875Z" fill="white"/>
<path d="M5.625 7.53125H2.34375C2.085 7.53125 1.875 7.74125 1.875 8C1.875 8.25875 2.085 8.46875 2.34375 8.46875H5.625C5.88375 8.46875 6.09375 8.25875 6.09375 8C6.09375 7.74125 5.88375 7.53125 5.625 7.53125Z" fill="white"/>
<path d="M5.625 9.875H2.34375C2.085 9.875 1.875 10.085 1.875 10.3438C1.875 10.6025 2.085 10.8125 2.34375 10.8125H5.625C5.88375 10.8125 6.09375 10.6025 6.09375 10.3438C6.09375 10.085 5.88375 9.875 5.625 9.875Z" fill="white"/>
<path d="M11.8421 8.23453C12.3478 7.80422 12.676 7.17141 12.676 6.45703C12.676 5.16469 11.6246 4.11328 10.3322 4.11328C9.03987 4.11328 7.98846 5.16469 7.98846 6.45703C7.98846 7.17141 8.31659 7.80422 8.82237 8.23453C7.77143 8.78203 7.05096 9.87984 7.05096 11.1445C7.05096 11.4037 7.26096 11.6133 7.51971 11.6133C7.77893 11.6133 7.98846 11.4037 7.98846 11.1445C7.98846 9.85219 9.03987 8.80078 10.3322 8.80078C11.6246 8.80078 12.676 9.85219 12.676 11.1445C12.676 11.4037 12.8855 11.6133 13.1447 11.6133C13.4039 11.6133 13.6135 11.4037 13.6135 11.1445C13.6135 9.87984 12.893 8.78203 11.8421 8.23453ZM10.3322 7.86328C9.5569 7.86328 8.92596 7.23234 8.92596 6.45703C8.92596 5.68172 9.5569 5.05078 10.3322 5.05078C11.1075 5.05078 11.7385 5.68172 11.7385 6.45703C11.7385 7.23234 11.1075 7.86328 10.3322 7.86328Z" fill="white"/>
</svg>
