<svg width="15" height="16" viewBox="0 0 15 16" fill="none" xmlns="http://www.w3.org/2000/svg">
<g clip-path="url(#clip0_36_1054)">
<path d="M3.31128 2.33533C5.71797 -0.0772705 9.61998 -0.0772705 12.0264 2.33533C14.4333 4.74798 13.8729 8.65977 11.4661 11.0724L7.66897 15.4407L3.87167 11.0724C1.46477 8.65977 0.904613 4.74797 3.31126 2.33533H3.31128ZM7.66893 13.8522L10.6741 10.2782C12.6431 8.30429 13.2034 5.10353 11.2344 3.12964C9.26512 1.15569 6.07268 1.15569 4.10358 3.12964C2.13454 5.10354 2.69483 8.30424 4.66393 10.2782L7.66893 13.8522ZM7.66893 3.33398C6.12183 3.33398 4.86768 4.59139 4.86768 6.14224C4.86768 7.69304 6.12183 8.95043 7.66893 8.95043C9.21627 8.95043 10.4701 7.69302 10.4701 6.14224C10.4701 4.59143 9.21628 3.33398 7.66893 3.33398ZM7.66893 7.82703C6.74067 7.82703 5.98818 7.07288 5.98818 6.14222C5.98818 5.21156 6.74062 4.45737 7.66893 4.45737C8.59723 4.45737 9.34982 5.21158 9.34982 6.14222C9.34982 7.07287 8.59723 7.82703 7.66893 7.82703Z" fill="white"/>
</g>
<defs>
<clipPath id="clip0_36_1054">
<rect width="15" height="15" fill="white" transform="translate(0 0.5)"/>
</clipPath>
</defs>
</svg>
